<?xml version="1.0" standalone="no"?>
<!DOCTYPE svg PUBLIC "-//W3C//DTD SVG 20010904//EN"
 "http://www.w3.org/TR/2001/REC-SVG-20010904/DTD/svg10.dtd">
<svg version="1.0" xmlns="http://www.w3.org/2000/svg"
 width="1388.000000pt" height="640.000000pt" viewBox="0 0 1388.000000 640.000000"
 preserveAspectRatio="xMidYMid meet">

<g transform="translate(0.000000,640.000000) scale(0.100000,-0.100000)"
fill="#000000" stroke="none">
<path d="M0 3200 l0 -3200 1023 0 c883 1 1025 3 1041 15 26 19 90 19 110 0 19
-20 90 -20 106 0 7 8 19 15 26 15 8 0 14 5 14 10 0 15 77 12 83 -2 4 -9 14 -4
31 15 14 15 30 27 36 27 5 0 10 18 10 40 l0 40 -40 0 c-36 0 -40 3 -40 25 0
23 -4 25 -40 25 -29 0 -40 4 -40 15 0 8 -7 15 -15 15 -11 0 -15 12 -15 48 0
35 -5 54 -18 65 -25 23 -30 21 -35 -10 -3 -21 -4 -18 -5 12 -2 64 4 68 93 60
51 -5 73 -11 64 -17 -9 -5 -4 -6 14 -2 25 6 28 4 25 -12 -2 -12 -22 -25 -56
-38 -37 -13 -52 -24 -52 -37 0 -17 8 -19 80 -19 50 0 80 -4 80 -11 0 -29 30
-40 88 -34 31 4 65 9 75 11 9 3 17 1 17 -5 0 -6 -16 -11 -35 -11 -34 0 -35 -1
-35 -40 0 -29 -4 -40 -15 -40 -10 0 -15 -10 -15 -30 0 -23 4 -30 16 -28 10 2
19 -3 21 -9 3 -8 -4 -13 -16 -13 -17 0 -21 -6 -21 -35 0 -19 5 -35 10 -35 6 0
10 5 10 10 0 6 30 10 70 10 56 0 70 -3 70 -15 0 -21 1 -20 49 25 41 39 43 40
116 40 60 0 75 3 75 15 0 17 65 21 90 5 13 -9 13 -11 0 -21 -11 -8 0 -9 43 -5
40 3 63 11 75 24 24 27 112 20 112 -9 0 -15 7 -19 40 -19 38 0 40 -2 40 -29 0
-28 -3 -30 -42 -33 -24 -2 50 -4 163 -5 l207 -1 6 36 c3 21 1 38 -4 40 -6 2
-10 10 -10 17 0 16 -71 9 -82 -9 -4 -6 -8 8 -8 32 0 23 -4 42 -10 42 -5 0 -10
17 -10 38 0 31 5 41 31 56 19 11 39 16 55 12 14 -4 24 -2 24 4 0 5 6 10 14 10
21 0 30 19 16 35 -9 11 -8 19 4 37 9 12 16 33 16 45 0 13 6 23 14 23 9 0 17
16 21 43 4 23 22 67 41 98 19 31 34 63 34 70 1 8 16 41 35 74 19 33 38 67 42
75 10 21 36 50 45 50 5 0 8 -16 8 -35 0 -19 4 -35 9 -35 5 0 13 -9 16 -20 3
-11 12 -20 19 -20 9 0 10 -19 2 -80 -7 -66 -6 -83 6 -98 29 -34 32 -45 9 -33
-11 7 -21 18 -21 26 0 8 -9 19 -19 25 -25 13 -34 13 -26 -1 4 -6 -2 -19 -14
-30 -21 -20 -28 -49 -12 -49 5 0 12 -20 15 -45 5 -31 17 -56 40 -80 19 -19 29
-38 24 -41 -13 -8 -77 65 -84 96 -3 14 -10 36 -15 50 -7 20 -8 15 -7 -24 2
-52 -11 -68 -37 -46 -22 18 -29 -11 -15 -57 16 -49 84 -141 116 -155 28 -13
33 -31 5 -20 -40 15 -131 113 -131 141 -1 9 -8 3 -17 -14 -15 -27 -17 -28 -24
-10 -4 11 -5 52 -2 90 6 75 -4 82 -19 13 -22 -104 -27 -145 -21 -180 5 -33 3
-38 -15 -38 -15 0 -22 -10 -31 -44 -6 -25 -11 -61 -11 -80 l0 -35 113 0 c108
0 111 0 90 17 -25 20 -63 81 -63 102 0 19 16 2 38 -40 30 -59 62 -75 163 -78
l89 -4 1 44 1 43 8 -38 c12 -62 17 -52 23 45 7 102 27 210 51 275 42 115 133
263 216 353 22 24 40 47 40 52 0 4 5 8 10 8 16 0 12 -16 -11 -36 -45 -40 -127
-164 -176 -264 -62 -126 -92 -240 -100 -377 l-6 -103 235 0 236 0 4 92 c3 65
12 115 30 165 l25 71 -59 7 c-109 13 -119 25 -15 19 53 -3 97 -2 97 3 0 4 11
21 25 37 14 16 25 33 25 38 0 4 -49 9 -110 9 -127 2 -126 2 -136 11 -4 5 57 8
136 8 155 0 159 1 236 74 12 11 28 21 35 22 8 2 39 10 69 18 60 17 114 21 106
7 -3 -4 -25 -11 -50 -14 -59 -8 -116 -37 -116 -58 0 -9 -7 -16 -16 -15 -9 0
-19 -5 -21 -12 -3 -8 4 -11 19 -10 17 2 24 -3 26 -20 5 -33 23 -36 87 -17 31
9 88 17 126 17 65 2 69 3 69 25 0 29 16 30 25 2 8 -24 12 -20 -47 -48 -27 -13
-51 -27 -54 -33 -3 -5 -12 -7 -20 -4 -11 4 -14 -5 -12 -47 2 -28 0 -68 -5 -88
l-7 -36 54 8 c29 4 63 12 75 19 12 6 32 10 44 8 15 -2 1 -10 -43 -26 -85 -30
-92 -34 -101 -60 -7 -19 -5 -22 20 -22 20 0 31 -7 40 -26 16 -35 8 -42 -44
-42 -34 1 -45 5 -45 17 -1 36 -26 52 -69 45 -22 -4 -41 -10 -41 -14 0 -4 -11
-5 -25 -2 -16 3 -27 -1 -31 -11 -4 -12 -11 -13 -35 -4 -16 6 -29 14 -29 18 0
7 10 11 105 45 73 26 105 62 105 118 l0 45 -45 -16 c-53 -18 -131 -89 -141
-129 -4 -15 -27 -46 -50 -69 -36 -34 -44 -47 -41 -73 4 -50 20 -42 39 18 9 30
17 53 18 50 1 -3 3 -20 5 -38 1 -18 5 -36 8 -39 10 -9 28 9 23 23 -7 18 8 18
24 -1 18 -22 3 -53 -28 -58 -15 -2 66 -5 180 -6 123 0 209 3 213 9 3 6 16 5
32 -3 21 -9 27 -9 31 1 2 7 8 10 12 7 5 -3 16 8 25 25 15 29 35 41 35 20 0
-14 29 -12 45 3 60 53 69 51 63 -13 l-5 -50 2631 0 2631 0 -52 33 c-29 17 -98
61 -155 96 -57 35 -140 88 -185 118 -44 29 -88 53 -96 53 -19 0 -61 56 -52 70
10 16 25 12 26 -7 0 -11 3 -13 6 -5 14 35 155 -10 288 -92 98 -61 281 -156
301 -156 8 0 14 4 14 9 0 16 131 -36 146 -58 9 -12 23 -21 32 -21 10 0 23 -9
30 -20 12 -20 23 -20 1382 -20 l1370 0 0 1994 0 1995 -22 4 -23 4 23 2 c30 1
32 51 2 51 -27 0 -25 28 3 33 l22 4 -22 2 c-28 1 -31 31 -3 31 31 0 28 57 -2
63 l-23 4 23 2 22 1 0 299 -1 299 -31 6 c-17 3 -43 6 -59 6 -28 0 -29 -1 -29
-55 0 -52 -14 -73 -26 -40 -4 11 -21 15 -55 15 l-49 0 0 -40 c0 -29 -4 -40
-15 -40 -10 0 -15 10 -15 26 0 27 0 27 -61 20 -34 -3 -70 -6 -80 -6 -12 0 -19
-7 -19 -20 0 -18 7 -20 55 -20 l55 0 0 -40 c0 -29 -4 -40 -15 -40 -11 0 -15
-11 -15 -40 0 -32 4 -40 18 -40 9 0 23 -9 30 -20 19 -30 32 -24 32 15 0 34 1
35 40 35 l40 0 0 -70 0 -70 -40 0 c-29 0 -40 4 -40 15 0 8 -8 15 -18 15 -9 0
-23 9 -30 20 -16 26 -32 26 -32 0 0 -11 -7 -20 -15 -20 -11 0 -15 -11 -15 -40
0 -22 -4 -40 -10 -40 -5 0 -10 -18 -10 -40 l0 -40 -40 0 -40 0 0 -40 0 -40
-95 0 -95 0 0 -55 0 -55 -40 0 -40 0 0 55 0 55 -40 0 -40 0 0 -40 0 -40 -40 0
-40 0 0 -40 0 -40 40 0 40 0 0 -40 c0 -29 4 -40 15 -40 11 0 15 -11 15 -40 0
-29 -4 -40 -15 -40 -11 0 -15 11 -15 40 0 33 -3 40 -20 40 -17 0 -20 -7 -20
-40 0 -33 -3 -40 -20 -40 -17 0 -20 7 -20 40 0 36 -2 40 -25 40 -22 0 -25 -4
-25 -40 l0 -40 -95 0 -95 0 0 -80 c0 -47 -4 -80 -10 -80 -5 0 -10 -18 -10 -40
0 -33 -3 -40 -20 -40 -17 0 -20 7 -20 40 0 29 -4 40 -15 40 -11 0 -15 -11 -15
-40 0 -39 -1 -40 -35 -40 -34 0 -35 -1 -35 -40 0 -29 4 -40 15 -40 12 0 15
-16 15 -80 0 -63 -3 -80 -14 -80 -10 0 -16 14 -18 43 -2 23 -1 -42 1 -145 l4
-188 -42 0 c-30 0 -41 -4 -41 -15 0 -8 7 -15 15 -15 11 0 15 -11 15 -40 0 -29
-4 -40 -15 -40 -8 0 -15 -7 -15 -15 0 -11 -11 -15 -40 -15 -29 0 -40 4 -40 15
0 10 -11 15 -35 15 -34 0 -35 1 -35 40 0 22 5 40 10 40 6 0 10 33 10 80 0 64
-3 80 -15 80 -11 0 -15 11 -15 40 0 29 -4 40 -15 40 -11 0 -15 -11 -15 -40 0
-36 -2 -40 -25 -40 -16 0 -25 6 -25 15 0 11 -11 15 -40 15 -29 0 -40 -4 -40
-15 0 -8 9 -15 19 -15 11 0 22 -4 26 -10 3 -5 12 -7 20 -3 11 3 15 -2 15 -17
0 -18 -3 -20 -14 -11 -18 15 -34 -5 -17 -22 14 -14 16 -14 71 -16 40 -1 40 -1
40 -41 l0 -40 -40 0 c-36 0 -40 3 -40 25 0 23 -4 25 -40 25 -29 0 -40 4 -40
15 0 12 -16 15 -80 15 -79 0 -80 0 -80 -25 0 -22 -4 -25 -40 -25 -29 0 -40 -4
-40 -15 0 -12 -16 -15 -80 -15 -64 0 -80 -3 -80 -15 0 -11 -11 -15 -40 -15
-36 0 -40 -2 -40 -25 0 -24 -3 -25 -59 -25 l-60 0 -3 -37 -3 -38 -57 -3 -58
-3 0 41 c0 40 0 40 -39 40 -22 0 -42 6 -45 13 -5 9 -7 9 -12 0 -3 -7 -19 -13
-35 -13 -27 0 -29 -2 -29 -40 l0 -40 -40 0 -40 0 0 -40 0 -40 145 0 145 0 0
-40 0 -40 -145 0 -145 0 0 -40 0 -40 -40 0 -40 0 0 40 0 40 -40 0 -40 0 0 -40
0 -40 -40 0 -40 0 0 -40 0 -40 -40 0 c-29 0 -40 4 -40 15 0 11 -11 15 -40 15
-29 0 -40 -4 -40 -15 0 -11 -11 -15 -40 -15 -40 0 -40 0 -40 39 0 39 1 40 38
43 20 2 -16 2 -80 -1 -116 -4 -118 -4 -118 17 0 28 -34 62 -60 62 -17 0 -20 7
-20 40 l0 40 -40 0 -40 0 0 40 0 40 -40 0 -40 0 0 120 c0 100 3 120 15 120 11
0 15 11 15 40 0 38 -2 40 -30 40 -28 0 -30 2 -30 40 0 36 -2 40 -25 40 -22 0
-25 4 -25 40 l0 40 40 0 40 0 0 80 c0 64 3 80 15 80 11 0 15 11 15 40 l0 40
-55 0 c-44 0 -55 -3 -55 -16 0 -17 -22 -14 -28 4 -2 7 3 12 12 12 12 0 16 10
16 40 0 29 4 40 15 40 11 0 15 11 15 40 0 29 -4 40 -15 40 -11 0 -15 -11 -15
-40 0 -30 -4 -40 -16 -40 -13 0 -15 13 -13 91 3 89 2 92 -24 115 -15 13 -27
30 -27 38 0 22 -60 78 -77 72 -8 -3 -11 -1 -8 4 4 6 -9 10 -31 10 -29 0 -44 7
-71 35 -22 23 -43 35 -61 35 -16 0 -32 8 -40 20 -14 24 -32 26 -32 5 0 -11
-11 -15 -40 -15 l-40 0 0 -45 0 -45 -40 0 -40 0 0 -40 0 -40 -40 0 c-29 0 -40
-4 -40 -15 0 -11 -11 -15 -40 -15 l-40 0 0 -105 0 -105 -40 0 -40 0 0 -40 0
-40 -80 0 -80 0 0 65 0 65 -40 0 c-29 0 -40 4 -40 15 0 11 -11 15 -40 15 l-40
0 0 80 0 80 -40 0 -40 0 0 80 0 80 40 0 40 0 0 40 0 40 -80 0 -80 0 0 80 0 80
-40 0 -40 0 0 40 0 40 40 0 40 0 0 55 0 55 40 0 40 0 0 105 0 105 -40 0 -40 0
0 80 0 80 40 0 c29 0 40 -4 40 -15 0 -11 11 -15 40 -15 29 0 40 4 40 15 0 11
-11 15 -40 15 -36 0 -40 3 -40 25 0 23 4 25 40 25 29 0 40 4 40 15 0 11 11 15
40 15 l40 0 0 40 c0 29 4 40 15 40 11 0 15 11 15 40 0 36 3 40 25 40 l25 0 0
120 0 120 40 0 c30 0 40 4 40 16 0 13 13 15 91 13 89 -3 92 -2 115 24 19 22
31 27 69 27 33 0 45 4 45 15 0 11 11 15 40 15 36 0 40 3 40 25 0 23 4 25 40
25 l40 0 0 -40 0 -40 40 0 c29 0 40 4 40 15 0 12 15 15 79 15 67 0 80 -3 84
-17 3 -10 5 1 6 25 l1 42 155 0 c131 0 155 -2 155 -15 0 -11 11 -15 40 -15 29
0 40 4 40 15 0 11 11 15 40 15 36 0 40 -2 40 -25 0 -22 4 -25 40 -25 22 0 40
5 40 10 0 6 33 10 80 10 64 0 80 -3 80 -15 0 -23 16 -18 42 14 l24 28 245 -3
c150 -3 245 -8 247 -14 2 -6 21 -10 43 -10 21 0 39 -4 39 -10 0 -6 33 -10 80
-10 73 0 80 -2 80 -20 0 -17 7 -20 40 -20 33 0 40 3 40 20 0 17 7 20 40 20 29
0 40 -4 40 -15 0 -11 12 -15 50 -15 43 0 55 4 76 28 17 18 27 23 31 15 2 -7
22 -13 44 -13 28 0 39 -4 39 -15 0 -8 -9 -15 -20 -15 -23 0 -26 -10 -8 -28 16
-16 28 -15 28 2 0 16 91 27 178 22 31 -2 40 -1 20 1 l-38 4 0 80 0 79 42 0
c23 0 39 3 35 6 -3 3 -40 3 -81 -1 -55 -5 -76 -11 -76 -21 0 -10 -13 -14 -40
-14 -29 0 -40 4 -40 15 0 9 9 15 25 15 23 0 25 4 25 40 0 36 -2 40 -25 40 -22
0 -25 4 -25 40 l0 40 -80 0 -80 0 0 -40 0 -40 -40 0 -40 0 0 40 c0 39 -1 40
-34 40 -34 0 -35 1 -39 43 l-4 42 -1 -42 -2 -43 -40 0 c-33 0 -40 3 -40 20 0
11 -4 20 -9 20 -19 0 -27 -27 -23 -72 3 -39 8 -48 23 -48 16 0 19 -7 18 -42
-2 -30 -3 -35 -6 -15 -4 24 -8 27 -44 27 -35 0 -39 -3 -39 -25 0 -22 -4 -25
-40 -25 -29 0 -40 4 -40 15 0 11 -11 15 -40 15 -29 0 -40 -4 -40 -15 0 -11 11
-15 40 -15 l40 0 0 -40 0 -40 -80 0 -80 0 0 80 c0 64 3 80 15 80 11 0 15 11
15 40 0 29 -4 40 -15 40 -11 0 -15 11 -15 40 0 39 -1 40 -37 40 -29 0 -44 -8
-75 -40 -34 -35 -45 -40 -84 -40 l-44 0 0 39 c0 40 0 40 43 44 l42 4 -42 1
c-24 1 -43 7 -43 12 0 6 -18 10 -40 10 l-40 0 0 -55 0 -55 -40 0 -40 0 0 80
c0 64 3 80 15 80 11 0 15 11 15 40 0 29 4 40 15 40 8 0 15 4 15 8 0 16 -70 72
-90 72 -17 0 -20 6 -20 40 0 22 -4 40 -10 40 -5 0 -10 18 -10 40 0 22 5 40 10
40 6 0 10 18 10 40 0 22 5 40 10 40 6 0 10 18 10 40 l0 40 -2369 0 -2369 0 -6
-67 c-4 -38 -11 -115 -16 -173 -5 -58 -12 -148 -15 -200 -3 -52 -10 -140 -15
-195 -5 -55 -16 -190 -25 -300 -9 -110 -25 -299 -35 -420 -11 -121 -24 -281
-30 -355 -18 -238 -39 -492 -50 -595 -5 -55 -17 -190 -25 -300 -9 -110 -20
-247 -25 -305 -5 -58 -12 -154 -15 -215 -4 -60 -11 -155 -16 -210 -6 -55 -14
-141 -19 -191 -9 -94 -17 -124 -30 -124 -4 0 -4 17 1 38 5 20 13 107 19 192 5
85 14 198 20 250 5 52 18 212 30 355 11 143 31 386 45 540 13 154 32 384 40
510 9 127 22 298 30 380 16 169 39 456 60 775 13 185 30 379 50 563 l6 47
-446 0 -445 -1 0 -29 c0 -26 4 -30 26 -30 21 0 25 -4 21 -20 -6 -22 0 -25 22
-11 10 7 31 -3 71 -31 55 -39 58 -40 82 -24 23 15 38 13 38 -6 0 -4 -7 -8 -15
-8 -21 0 -19 -16 6 -33 14 -10 17 -17 9 -22 -6 -4 -20 1 -30 10 -12 11 -20 13
-25 6 -11 -18 -34 -13 -28 7 3 12 -3 22 -19 29 -25 11 -95 6 -104 -8 -3 -5
-16 -9 -30 -9 -22 0 -24 4 -22 35 1 19 -1 37 -5 41 -4 4 -7 -35 -8 -87 -1
-123 -8 -261 -13 -276 -3 -6 2 -14 11 -17 14 -6 14 -9 -4 -25 -15 -15 -21 -33
-22 -77 -1 -58 -5 -73 -18 -60 -6 6 9 364 24 567 l5 77 -40 -1 c-33 -1 -39 -4
-30 -14 5 -7 15 -10 20 -7 6 4 4 -4 -2 -17 -13 -24 -13 -24 9 -5 l21 19 0 -42
c0 -64 -13 -82 -52 -70 -18 5 -40 6 -50 4 -10 -4 -21 1 -27 12 -10 17 -10 17
-11 0 0 -10 -5 -15 -11 -12 -6 4 -8 13 -5 20 3 9 -7 14 -30 17 -34 4 -47 -8
-19 -18 18 -7 20 -34 3 -34 -8 0 -4 -7 6 -15 24 -18 14 -30 -31 -40 -29 -6
-33 -4 -33 14 0 14 5 19 15 15 19 -8 19 3 0 22 -15 15 -16 15 -19 -6 0 -6 -6
-14 -12 -18 -6 -4 -13 -15 -17 -24 -8 -24 -65 -18 -84 8 -11 16 -17 17 -34 6
-23 -14 -39 -8 -39 15 0 9 6 13 14 10 10 -4 16 2 18 16 3 19 9 22 41 20 20 -1
37 2 37 7 0 6 -9 10 -19 10 -13 0 -21 8 -23 22 -2 18 -10 22 -41 24 -21 0 -43
6 -49 12 -7 7 -20 12 -29 12 -10 0 -21 9 -24 20 -7 21 -30 27 -40 10 -6 -9 0
-18 33 -55 7 -8 13 -18 12 -22 0 -4 6 -8 13 -8 8 0 13 -24 15 -81 3 -94 -7
-112 -51 -91 -27 12 -36 27 -17 27 16 0 12 28 -6 38 -10 6 -25 5 -40 -2 -19
-9 -24 -19 -24 -50 0 -32 2 -36 14 -27 10 8 16 9 21 1 3 -5 17 -10 30 -10 29
0 43 -19 24 -32 -10 -7 -8 -8 7 -3 25 6 81 -19 64 -30 -6 -4 -34 -4 -61 0 -50
7 -51 7 -44 -16 4 -13 19 -37 34 -52 l26 -29 -90 6 c-154 9 -189 15 -206 36
-9 10 -20 16 -24 12 -4 -4 -5 7 -2 24 3 17 1 36 -5 42 -8 8 -8 15 1 25 9 12 8
16 -4 21 -8 3 -15 17 -15 31 0 24 3 26 33 23 28 -3 32 -6 29 -30 -3 -26 -2
-26 63 -30 37 -1 72 0 77 3 13 8 4 89 -10 98 -5 3 -11 15 -13 25 -4 17 -36 43
-79 63 -8 3 -18 11 -21 16 -13 19 -30 -3 -18 -24 6 -11 8 -27 5 -36 -10 -25
-39 5 -32 33 5 17 0 26 -16 35 -13 7 -28 19 -34 28 -10 13 -12 12 -18 -7 -4
-13 -5 -35 -1 -50 6 -28 5 -30 -51 -80 -22 -20 -22 -20 -35 4 -9 18 -10 32 -2
59 10 30 9 35 -5 35 -8 0 -12 3 -9 7 4 3 2 12 -3 19 -8 9 3 16 45 29 30 10 55
22 55 26 0 5 -420 9 -941 9 l-941 0 7 -30 c7 -31 -2 -39 -23 -18 -13 13 -16 0
-12 -56 2 -29 1 -29 -42 -22 l-43 6 35 -30 35 -29 -35 0 c-57 0 -80 27 -80 93
0 30 4 58 10 61 6 3 10 10 10 16 0 5 -425 9 -1115 9 l-1115 0 0 -3200z m7460
3053 c-18 -83 -21 -86 -15 -15 5 64 12 88 23 78 3 -3 -1 -32 -8 -63z m-5060
31 c0 -8 -5 -12 -10 -9 -6 4 -8 11 -5 16 9 14 15 11 15 -7z m673 1 c-4 -16
-43 -14 -43 2 0 9 8 13 23 11 12 -2 21 -7 20 -13z m244 -47 c-3 -8 -6 -5 -6 6
-1 11 2 17 5 13 3 -3 4 -12 1 -19z m-179 -52 c3 -32 1 -36 -21 -36 -55 0 -87
12 -93 35 -3 13 -1 32 5 43 9 18 14 18 58 7 45 -11 48 -14 51 -49z m1942 49
c0 -8 -9 -15 -20 -15 -20 0 -26 11 -13 23 12 13 33 7 33 -8z m60 -10 c0 -8 -4
-15 -10 -15 -5 0 -10 7 -10 15 0 8 5 15 10 15 6 0 10 -7 10 -15z m216 -17 c-3
-13 -6 -29 -6 -35 0 -7 -9 -13 -19 -13 -11 0 -21 6 -24 13 -6 17 22 57 40 57
11 0 14 -6 9 -22z m-3729 -40 c-3 -7 -5 -2 -5 12 0 14 2 19 5 13 2 -7 2 -19 0
-25z m2619 -15 c-7 -8 -46 12 -46 24 0 11 5 10 24 -4 13 -10 23 -19 22 -20z
m864 17 c0 -5 -4 -10 -10 -10 -5 0 -10 5 -10 10 0 6 5 10 10 10 6 0 10 -4 10
-10z m307 -18 c-8 -8 -20 -11 -27 -7 -16 10 7 35 27 28 13 -5 13 -7 0 -21z
m2013 -82 l-11 -25 6 25 c2 14 6 39 6 55 l2 30 4 -30 c2 -17 -1 -42 -7 -55z
m-5670 56 c0 -3 -4 -8 -10 -11 -5 -3 -10 -1 -10 4 0 6 5 11 10 11 6 0 10 -2
10 -4z m1410 -57 c0 -44 -3 -60 -12 -56 -12 3 -20 91 -11 110 13 23 23 -1 23
-54z m1515 41 c3 -5 1 -10 -4 -10 -6 0 -11 5 -11 10 0 6 2 10 4 10 3 0 8 -4
11 -10z m-405 -90 c-16 -38 -43 -43 -71 -14 -18 19 -20 26 -9 39 14 17 40 20
40 5 0 -19 19 -10 26 12 6 19 7 20 16 4 7 -12 6 -27 -2 -46z m1033 40 c14 -11
30 -20 36 -20 22 0 11 -20 -11 -21 -14 -1 -4 -6 22 -13 25 -7 44 -15 43 -19
-2 -4 -5 -18 -9 -32 -3 -14 -10 -25 -14 -25 -4 0 -11 -7 -14 -16 -4 -12 -1
-14 14 -9 11 3 32 8 47 11 37 7 46 14 34 28 -7 9 -7 16 0 23 7 7 3 12 -15 17
-14 3 -26 14 -26 22 0 10 6 14 15 10 8 -3 15 -1 15 4 0 6 7 10 15 10 14 0 19
-14 18 -47 -1 -7 10 -13 23 -13 12 0 25 -4 29 -10 3 -5 13 -6 21 -3 9 3 21 -3
31 -16 8 -12 21 -20 29 -17 11 4 14 -5 14 -37 0 -23 -3 -53 -7 -66 -6 -23 -7
-23 -90 -17 -47 4 -97 12 -111 17 -15 6 -56 12 -92 15 -124 7 -115 3 -116 59
-1 28 -4 72 -7 98 -4 36 -2 50 9 54 8 3 14 11 14 19 0 21 53 17 83 -6z m327
-40 c0 -5 -9 -10 -21 -10 -11 0 -17 5 -14 10 3 6 13 10 21 10 8 0 14 -4 14
-10z m-880 -60 c0 -5 -4 -10 -10 -10 -5 0 -10 5 -10 10 0 6 5 10 10 10 6 0 10
-4 10 -10z m-2249 -80 c27 -15 24 -37 -7 -44 -29 -8 -64 1 -64 15 0 5 0 12 -1
17 0 4 10 10 23 14 13 3 24 6 26 7 2 1 12 -4 23 -9z m249 -40 c0 -15 -6 -33
-14 -39 -11 -10 -17 -7 -30 11 -21 29 -20 55 1 67 24 13 43 -4 43 -39z m330
35 c17 -9 30 -21 31 -28 0 -6 5 -2 11 11 19 39 28 24 28 -48 0 -66 -1 -70 -22
-69 -13 0 -35 -3 -50 -7 -82 -20 -147 38 -117 104 22 50 67 64 119 37z m-555
-70 c0 -5 -15 -11 -32 -13 -25 -3 -33 1 -33 13 0 12 8 16 33 13 17 -2 32 -7
32 -13z m5311 -11 c56 -8 127 -14 158 -14 52 0 56 -2 62 -26 4 -15 -3 -120
-15 -233 -11 -113 -23 -255 -26 -316 l-5 -110 19 140 c11 77 23 181 27 230 4
50 9 82 11 73 3 -10 11 -18 19 -18 10 0 14 -12 14 -40 0 -39 1 -40 35 -40 33
0 35 -2 34 -32 0 -28 -2 -30 -9 -13 -6 13 -7 -5 -3 -47 4 -51 3 -68 -7 -68
-10 0 -11 -17 -6 -72 4 -40 9 -82 12 -93 4 -16 3 -17 -5 -5 -8 11 -11 5 -11
-27 0 -24 -5 -43 -11 -43 -6 0 -10 -18 -9 -42 3 -65 1 -78 -10 -78 -5 0 -10 9
-10 20 0 11 -7 20 -15 20 -12 0 -15 -8 -11 -32 15 -98 17 -128 7 -128 -6 0
-11 -7 -11 -15 0 -8 -11 -25 -25 -39 -16 -16 -26 -38 -26 -58 -1 -27 -2 -29
-6 -8 -3 14 -9 29 -14 35 -5 5 -9 22 -9 37 0 15 -4 28 -10 28 -5 0 -8 12 -6
28 2 15 1 19 -1 10 -6 -25 -18 -22 -32 8 -17 38 -61 93 -84 106 -18 9 -19 8
-13 -17 4 -17 3 -24 -4 -20 -5 3 -10 18 -10 33 0 65 -97 132 -191 132 -38 0
-69 6 -84 16 -28 18 -92 12 -135 -13 -14 -7 -43 -24 -65 -36 -22 -12 -45 -33
-51 -45 -8 -16 -14 -20 -19 -12 -5 8 -14 5 -31 -11 -28 -26 -27 -31 -14 101
14 144 48 481 60 605 6 61 13 120 15 131 5 22 6 22 212 17 115 -2 254 -11 309
-19z m3434 -74 l0 -40 -40 0 c-29 0 -40 4 -40 15 0 11 -11 15 -40 15 -22 0
-40 5 -40 10 0 6 18 10 40 10 29 0 40 4 40 15 0 11 11 15 40 15 l40 0 0 -40z
m-5650 16 c0 -15 -18 -31 -26 -23 -7 7 7 37 17 37 5 0 9 -6 9 -14z m-3077 -3
c-7 -2 -21 -2 -30 0 -10 3 -4 5 12 5 17 0 24 -2 18 -5z m237 -13 c0 -5 -4 -10
-10 -10 -5 0 -10 5 -10 10 0 6 5 10 10 10 6 0 10 -4 10 -10z m2880 -10 c0 -21
-24 -28 -35 -10 -8 14 3 30 21 30 8 0 14 -9 14 -20z m-983 -143 c-5 -70 -11
-126 -14 -124 -2 3 -1 64 3 136 4 73 10 128 14 124 3 -4 2 -66 -3 -136z m1061
100 c4 -20 -25 -34 -40 -19 -15 15 -1 44 19 40 10 -2 19 -11 21 -21z m-568 4
c0 -6 -4 -12 -9 -15 -5 -3 -12 -68 -16 -143 -4 -76 -11 -154 -16 -173 -5 -21
-6 31 -2 130 3 91 9 175 14 188 8 22 29 31 29 13z m6497 -53 c-2 -13 -4 -3 -4
22 0 25 2 35 4 23 2 -13 2 -33 0 -45z m-8613 22 c4 -4 -2 -13 -14 -20 -18 -9
-25 -8 -41 6 -10 9 -16 21 -13 26 7 10 53 2 68 -12z m1577 -80 l-8 -75 -2 81
c0 44 2 84 7 88 12 13 13 -14 3 -94z m-655 45 c-7 -18 -26 -20 -26 -2 0 18 24
41 28 27 2 -6 1 -17 -2 -25z m-835 2 c-1 -4 -1 -25 -1 -47 0 -22 -4 -40 -10
-40 -5 0 -10 23 -10 51 0 32 4 49 11 47 6 -2 10 -7 10 -11z m2537 -11 c8 -17
7 -27 -1 -35 -8 -8 -12 -59 -12 -156 0 -80 -3 -145 -7 -145 -5 0 -8 8 -8 17 0
13 -3 14 -12 5 -8 -8 -8 -15 2 -27 9 -11 10 -19 2 -27 -20 -20 -33 3 -28 50 2
26 7 103 11 172 3 69 8 135 11 148 6 29 28 28 42 -2z m37 -256 c16 -7 14 -8
-12 -7 -18 1 -33 5 -33 10 0 9 19 8 45 -3z m88 -17 c-7 -2 -19 -2 -25 0 -7 3
-2 5 12 5 14 0 19 -2 13 -5z m77 -9 c0 -2 -11 -4 -25 -4 -14 0 -25 4 -25 9 0
4 11 6 25 3 14 -2 25 -6 25 -8z m-149 -55 c-6 -24 -11 -60 -12 -79 0 -19 -3
-29 -6 -22 -9 23 8 165 18 155 6 -6 6 -26 0 -54z m2446 -1 c-2 -13 -4 -5 -4
17 -1 22 1 32 4 23 2 -10 2 -28 0 -40z m1013 37 c0 -11 -11 -15 -40 -15 -29 0
-40 4 -40 15 0 11 11 15 40 15 29 0 40 -4 40 -15z m-3405 -62 c-21 -168 -24
-179 -18 -83 4 52 7 103 7 113 0 9 4 17 8 17 5 0 6 -21 3 -47z m62 0 c-3 -16
-8 -57 -12 -93 -9 -94 -14 -110 -31 -110 -13 0 -14 2 -1 14 12 12 35 180 29
209 -1 4 3 7 9 7 7 0 9 -11 6 -27z m563 13 c0 -8 -4 -18 -10 -21 -5 -3 -10 3
-10 14 0 12 5 21 10 21 6 0 10 -6 10 -14z m-507 -43 c-8 -66 -15 -68 -12 -5 2
28 6 52 11 52 4 0 5 -21 1 -47z m-217 -32 c-3 -14 -8 -45 -11 -68 -4 -24 -11
-45 -16 -49 -5 -3 -7 -10 -4 -15 3 -5 -1 -6 -9 -3 -28 11 -17 -10 14 -28 17
-9 30 -23 30 -31 0 -12 -9 -13 -46 -6 -25 5 -50 7 -54 4 -5 -3 -11 -1 -15 5
-3 5 -1 10 4 10 6 0 11 17 11 38 0 20 5 55 11 76 9 33 13 37 21 23 14 -26 28
-11 28 29 0 21 -4 33 -10 29 -5 -3 -10 -2 -10 3 0 15 10 19 36 14 21 -4 24 -9
20 -31z m2481 -3 c-3 -7 -5 -2 -5 12 0 14 2 19 5 13 2 -7 2 -19 0 -25z m973
-8 c0 -36 3 -40 25 -40 23 0 25 -4 25 -40 l0 -40 -40 0 c-29 0 -40 -4 -40 -15
0 -11 -11 -15 -40 -15 l-40 0 0 55 0 55 40 0 40 0 0 40 c0 29 4 40 15 40 11 0
15 -11 15 -40z m-3253 -72 c-2 -13 -4 -5 -4 17 -1 22 1 32 4 23 2 -10 2 -28 0
-40z m-180 -10 c-3 -7 -5 -2 -5 12 0 14 2 19 5 13 2 -7 2 -19 0 -25z m50 -80
c-3 -7 -5 -2 -5 12 0 14 2 19 5 13 2 -7 2 -19 0 -25z m116 25 c-7 -2 -21 -2
-30 0 -10 3 -4 5 12 5 17 0 24 -2 18 -5z m1047 -43 c0 -13 -7 -20 -20 -20 -19
0 -27 20 -13 33 13 14 33 6 33 -13z m-1360 0 c0 -5 -9 -10 -21 -10 -11 0 -17
5 -14 10 3 6 13 10 21 10 8 0 14 -4 14 -10z m-292 -52 c7 -16 19 -28 27 -28 8
0 17 -4 20 -10 4 -6 -5 -10 -19 -10 -17 0 -26 6 -26 16 0 11 -6 14 -21 9 -25
-8 -60 20 -52 41 9 25 56 13 71 -18z m2054 19 c17 15 18 14 18 -15 0 -27 -4
-32 -24 -32 -13 0 -26 -6 -28 -12 -3 -9 -9 -8 -21 3 -13 14 -14 21 -4 42 10
23 14 24 26 12 13 -13 17 -12 33 2z m88 -15 c0 -24 19 -42 46 -42 16 0 24 -7
26 -22 2 -13 13 -27 26 -33 24 -11 28 -25 11 -42 -13 -13 -59 6 -59 25 0 22
-34 58 -50 54 -9 -1 -26 9 -39 22 -20 21 -22 28 -11 41 17 21 50 19 50 -3z
m-1940 -37 c7 -8 25 -15 41 -15 15 0 31 -4 34 -10 3 -5 15 -10 26 -10 10 0 19
-4 19 -10 0 -13 -33 -13 -103 1 -58 12 -84 30 -72 49 9 15 41 12 55 -5z m265
-30 c41 -19 86 -37 100 -41 30 -7 41 -22 27 -36 -9 -9 -100 15 -112 30 -8 12
-59 32 -80 32 -20 0 -44 32 -33 44 11 10 21 7 98 -29z m1173 18 c-5 -26 -38
-29 -38 -4 0 15 6 21 21 21 14 0 19 -5 17 -17z m1319 -15 c-3 -8 -6 -5 -6 6
-1 11 2 17 5 13 3 -3 4 -12 1 -19z m163 -138 c0 -5 -12 -10 -27 -10 -22 0 -25
2 -13 10 20 13 40 13 40 0z m-1029 -25 c43 -31 139 -78 146 -71 3 3 23 -4 45
-15 22 -11 46 -18 54 -15 21 8 64 -11 64 -29 0 -10 -10 -15 -32 -15 l-33 0 32
-22 c31 -22 44 -48 23 -48 -5 0 -10 -4 -10 -10 0 -15 62 -11 84 5 28 21 36 19
36 -12 0 -31 34 -93 50 -93 5 0 10 -14 10 -31 0 -28 -3 -31 -25 -27 -14 3 -23
1 -22 -6 1 -6 -10 -12 -26 -14 -15 -2 -34 -14 -42 -26 -9 -13 -37 -38 -63 -55
-30 -21 -53 -47 -64 -72 -17 -41 -37 -49 -58 -24 -9 11 -16 12 -20 5 -7 -11
-64 12 -75 31 -4 5 -11 9 -16 9 -6 0 -7 -4 -4 -10 9 -15 -21 -12 -33 3 -6 7
-20 35 -31 62 l-20 50 0 -42 c-1 -40 -3 -43 -29 -43 -19 0 -39 11 -63 36 -50
51 -133 114 -152 114 -19 0 -22 11 -7 26 7 7 7 21 -1 43 -13 36 1 121 27 171
l13 25 1 -23 c0 -13 -5 -32 -10 -42 -12 -22 -19 -150 -8 -150 3 0 19 20 35 45
15 25 31 45 35 45 3 0 16 17 29 38 17 28 23 54 24 106 1 59 4 71 24 87 32 26
71 24 112 -6z m727 0 c-3 -3 -9 2 -12 12 -6 14 -5 15 5 6 7 -7 10 -15 7 -18z
m-41 -7 c-3 -8 -6 -5 -6 6 -1 11 2 17 5 13 3 -3 4 -12 1 -19z m180 -20 c-3 -8
-6 -5 -6 6 -1 11 2 17 5 13 3 -3 4 -12 1 -19z m-2367 8 c0 -3 -4 -8 -10 -11
-5 -3 -10 -1 -10 4 0 6 5 11 10 11 6 0 10 -2 10 -4z m7838 -34 c2 -7 -3 -12
-12 -12 -9 0 -16 7 -16 16 0 17 22 14 28 -4z m-8188 -27 c0 -18 75 -22 85 -4
8 12 173 10 218 -2 16 -5 27 -4 27 2 0 6 4 8 9 5 15 -10 0 -260 -29 -496 -6
-41 -21 -259 -35 -485 -14 -225 -29 -438 -33 -472 -6 -50 -5 -60 5 -51 10 8
13 5 13 -11 0 -12 -7 -24 -16 -28 -9 -3 -14 -13 -11 -24 3 -10 1 -53 -3 -96
-5 -43 -11 -103 -15 -133 -12 -116 -23 -283 -19 -294 7 -19 -24 -91 -38 -87
-7 2 -31 5 -52 7 -46 4 -47 6 -65 58 -11 32 -11 40 0 47 11 6 8 13 -11 33 -13
15 -29 26 -37 26 -17 0 -17 -8 2 -26 8 -9 15 -20 15 -25 0 -5 -16 6 -35 26
-24 24 -45 35 -65 35 -15 0 -30 5 -32 11 -3 8 -10 9 -23 2 -14 -7 -86 -3 -245
13 -124 13 -236 23 -250 21 l-25 -3 28 -12 c15 -7 82 -21 149 -33 67 -11 133
-25 147 -31 14 -6 41 -13 60 -15 34 -4 75 -32 49 -34 -7 -1 -2 -5 12 -9 23 -7
24 -8 3 -9 -32 -1 -245 26 -346 45 -48 9 -90 15 -92 12 -3 -2 100 -24 228 -47
348 -63 425 -79 502 -102 87 -26 106 -35 147 -70 l33 -29 -60 29 c-61 29 -226
68 -650 152 -115 23 -225 50 -243 60 -18 11 -44 19 -57 19 -13 0 -47 9 -75 20
-28 11 -62 20 -76 20 -41 0 -154 32 -148 41 3 5 10 7 15 3 5 -3 8 0 7 8 -4 16
-5 16 187 -10 89 -12 156 -17 165 -12 13 8 13 9 0 14 -8 3 -96 15 -195 26 -99
11 -202 24 -230 29 -53 10 -95 5 -95 -10 0 -5 6 -12 14 -15 7 -3 44 -34 81
-70 38 -35 76 -64 86 -64 11 0 16 -5 13 -14 -3 -9 13 -20 53 -35 32 -13 73
-29 91 -37 18 -8 37 -14 42 -14 5 0 36 -12 67 -28 62 -29 103 -31 104 -4 0 12
3 11 9 -6 5 -12 14 -22 20 -22 6 0 8 -4 5 -10 -3 -5 1 -10 9 -10 9 0 16 -4 16
-10 0 -5 8 -10 19 -10 10 0 24 -6 30 -14 6 -8 25 -19 41 -26 16 -7 27 -16 24
-21 -3 -5 4 -9 15 -9 27 0 35 -17 14 -29 -15 -9 -10 -11 22 -9 40 3 40 3 43
-36 4 -49 -9 -57 -67 -41 -25 7 -68 16 -96 20 -27 4 -75 14 -105 22 -30 8 -69
18 -87 23 -37 9 -218 -3 -382 -25 -63 -8 -126 -14 -140 -14 -25 1 -25 2 4 9
29 7 29 8 4 9 -15 0 -32 -6 -39 -14 -14 -16 -34 -10 -24 7 4 7 2 8 -4 4 -7 -4
-12 -25 -12 -47 0 -24 -4 -38 -10 -34 -5 3 -10 16 -10 28 0 12 -9 28 -19 34
-27 17 -44 -8 -60 -86 -18 -94 -33 -111 -102 -111 -33 0 -97 74 -80 93 17 21
21 65 6 71 -8 3 -17 1 -20 -4 -9 -15 -42 -12 -49 5 -3 9 -12 12 -22 8 -16 -6
-16 -7 2 -14 17 -7 17 -8 1 -8 -10 -1 -15 -5 -12 -11 9 -14 -8 -13 -23 2 -9 9
-12 8 -12 -5 0 -9 -6 -17 -12 -18 -7 0 -39 -2 -71 -4 -33 -2 -66 -9 -75 -18
-9 -8 -26 -17 -36 -18 -38 -7 -28 -29 23 -51 53 -22 65 -44 36 -68 -8 -7 -15
-23 -15 -37 0 -22 -1 -23 -16 -9 -9 9 -32 16 -55 16 -21 0 -39 5 -39 10 0 7
-35 8 -102 3 -143 -10 -211 -8 -216 5 -2 7 -21 12 -43 12 -21 0 -39 5 -39 10
0 6 -16 10 -36 10 -19 0 -42 6 -50 14 -7 8 -19 17 -26 20 -11 5 -11 7 0 12 7
3 19 12 26 20 8 8 30 14 48 14 29 0 36 5 52 40 18 38 33 46 75 40 10 -1 5 11
-13 35 -15 20 -26 37 -25 39 2 1 24 8 49 15 25 7 56 17 70 22 38 13 181 13
213 0 16 -6 44 -11 62 -11 33 0 55 -20 55 -49 0 -16 -89 -39 -182 -47 -76 -7
-80 -8 -43 -15 22 -4 79 -8 128 -8 84 -1 88 0 99 24 12 26 17 28 165 63 46 11
80 16 78 11 -3 -4 12 -9 32 -11 24 -2 37 -8 35 -15 -3 -18 8 -16 53 12 l40 25
-75 1 c-61 0 -71 2 -52 11 12 6 22 15 22 20 0 4 19 8 42 8 23 0 38 3 34 8 -4
4 -41 7 -82 7 -75 0 -106 -14 -36 -16 20 -1 1 -6 -43 -10 -44 -5 -91 -14 -104
-19 -15 -7 -28 -7 -33 -2 -10 10 60 31 109 33 15 1 -1 6 -36 11 -56 8 -67 6
-98 -12 -28 -16 -45 -19 -79 -14 -48 7 -64 21 -43 36 10 7 3 7 -21 3 -83 -17
-236 -20 -300 -6 -96 20 -108 35 -34 42 70 7 84 3 84 -22 0 -14 7 -19 25 -19
27 0 32 9 13 28 -9 9 -9 15 0 24 19 19 14 38 -10 38 -13 1 -34 7 -48 15 -33
19 -79 19 -86 0 -4 -10 -13 -13 -26 -9 -13 4 -18 2 -14 -4 9 -14 -17 -22 -29
-8 -13 15 -3 82 12 79 7 -2 10 4 7 12 -4 11 7 16 45 21 56 7 66 20 24 30 -66
14 -92 27 -98 45 -9 27 -8 28 66 43 l64 13 -47 7 c-27 3 -68 9 -93 12 -45 6
-83 33 -57 41 6 3 12 11 12 18 0 10 10 12 38 8 40 -7 42 -7 90 -5 27 2 32 6
32 27 0 23 -4 24 -62 27 -58 3 -61 4 -37 15 15 6 62 12 105 13 149 3 148 3
168 -31 12 -21 24 -29 36 -26 10 2 42 -2 71 -9 29 -8 63 -14 74 -13 35 1 -35
28 -75 29 -30 0 -37 5 -47 29 -14 38 -71 56 -165 53 -66 -2 -68 -2 -68 23 0
14 -6 25 -12 25 -9 0 -8 4 2 10 8 5 29 10 47 10 17 0 45 8 61 17 26 15 39 16
96 6 37 -6 78 -8 94 -3 24 7 22 8 -26 15 -29 4 -55 12 -58 16 -3 5 -13 9 -23
9 -10 0 -21 9 -24 20 -8 31 -35 24 -51 -13 -12 -31 -16 -33 -52 -29 -41 4
-134 42 -134 54 0 5 11 8 24 8 14 0 28 4 31 10 6 10 -42 26 -52 16 -3 -3 -11
-2 -17 3 -6 5 -71 11 -144 13 -90 2 -132 7 -132 14 0 18 50 23 210 25 121 0
153 -3 193 -18 l48 -20 -43 -13 c-37 -11 -40 -14 -22 -20 11 -5 34 -10 50 -12
28 -3 29 -1 29 35 0 28 5 41 20 49 30 16 30 16 10 38 -17 19 -17 20 9 31 32
15 33 27 4 39 -21 8 -20 9 9 9 39 1 63 10 63 23 0 6 -14 8 -34 5 -22 -3 -41 0
-53 8 -10 8 -30 15 -45 15 -36 0 -78 20 -78 37 0 9 13 13 40 13 52 0 54 24 3
41 -37 12 -37 13 -13 20 39 11 203 -2 218 -18 16 -15 72 -18 72 -3 0 6 14 10
31 10 17 0 28 4 24 10 -3 6 -17 10 -31 10 -15 0 -24 6 -24 15 0 12 16 15 88
15 97 0 140 -14 79 -25 -20 -4 -37 -11 -37 -16 0 -12 62 -11 94 0 16 7 26 7
28 0 2 -6 45 -12 98 -14 196 -8 334 -21 338 -33 2 -7 10 -12 18 -12 17 0 18
-14 3 -42 -8 -14 -8 -23 0 -31 6 -6 11 -19 11 -28 0 -32 68 -36 127 -7 33 16
113 -8 113 -34 0 -11 5 -16 10 -13 6 4 17 1 25 -5 34 -28 14 -33 -117 -26 -73
4 -245 7 -383 7 l-250 -1 -33 68 c-31 61 -56 103 -96 157 l-14 20 -16 -20 c-8
-11 -13 -28 -9 -39 5 -17 1 -18 -46 -14 l-51 5 25 -25 c20 -19 28 -23 37 -14
17 17 28 15 28 -7 0 -14 -12 -24 -36 -33 -33 -12 -34 -13 -13 -18 14 -3 26
-15 29 -30 7 -29 27 -37 32 -13 4 15 7 13 18 -10 11 -22 19 -27 45 -25 38 2
86 -30 79 -54 -3 -9 0 -19 6 -23 5 -3 10 -15 10 -26 0 -12 5 -19 13 -16 15 5
12 58 -3 67 -19 12 28 20 113 20 45 0 76 -4 72 -9 -3 -5 21 -12 52 -16 32 -4
71 -11 87 -16 16 -5 38 -9 50 -9 12 0 34 -7 50 -15 16 -9 29 -14 30 -13 16 44
13 43 221 41 189 -2 199 -3 222 -24 19 -18 23 -20 23 -6 0 9 -4 19 -10 22 -22
14 -7 23 53 31 75 10 122 10 383 0 128 -5 204 -4 208 2 3 6 -17 10 -52 11
-169 2 -682 22 -694 26 -7 3 -31 31 -52 62 -40 58 -77 102 -108 131 -27 25
-21 35 16 29 19 -3 59 1 88 9 61 16 162 19 153 4 -13 -21 104 -42 233 -40 70
0 135 1 146 1 10 0 26 -6 35 -14 9 -8 41 -18 71 -21 53 -6 54 -6 33 10 -32 23
-29 29 17 48 26 10 40 22 40 34 0 10 5 23 12 30 16 16 -7 42 -38 42 -24 0 -33
-23 -14 -35 23 -14 7 -25 -34 -25 -28 0 -67 11 -108 30 -34 16 -55 30 -45 30
29 0 14 24 -21 36 -18 5 -37 15 -44 22 -7 7 -26 12 -42 12 -17 0 -38 4 -46 10
-16 10 -12 12 45 25 40 9 18 20 -58 30 -49 5 -56 9 -46 21 9 11 7 14 -14 14
-13 0 -30 7 -37 15 -17 21 -37 19 -43 -5 -4 -15 0 -20 14 -20 10 0 19 -4 19
-10 0 -5 16 -17 36 -25 31 -13 34 -17 24 -30 -23 -28 -198 -14 -240 20 -17 13
-53 9 -45 -6 4 -5 -4 -9 -17 -10 -50 -2 -135 2 -176 8 -37 5 -44 9 -49 34 -4
23 -11 29 -33 29 -15 0 -36 10 -49 24 -23 24 -23 24 -2 31 11 3 25 3 31 0 5
-3 10 -1 10 4 0 7 54 11 158 12 86 1 148 3 137 6 -33 8 -40 21 -25 48 22 42
-2 56 -104 62 -47 3 -86 10 -86 14 0 5 -18 9 -40 9 -22 0 -40 4 -40 10 0 15
179 8 185 -8 4 -10 9 -10 27 -1 13 7 25 15 28 19 8 12 240 21 240 10 0 -18 29
-10 54 15 24 24 30 25 146 25 73 0 120 4 120 10 0 6 19 11 43 12 l42 1 -42 4
c-43 4 -43 4 -43 44 0 39 0 39 40 39 22 0 40 4 40 9 0 14 151 25 160 12 4 -7
54 -14 123 -18 105 -5 117 -4 117 10 0 13 9 17 40 17 22 0 40 5 40 10 0 6 -18
10 -40 10 -29 0 -40 4 -40 15 0 11 -11 15 -40 15 -22 0 -40 5 -40 10 0 6 18
10 41 10 38 0 40 1 37 28 -3 24 -7 27 -38 27 -19 1 -38 -4 -42 -10 -5 -6 -11
-6 -20 3 -6 6 -22 12 -35 12 -21 0 -23 4 -23 50 l0 50 -49 0 c-42 0 -53 4 -74
30 -30 35 -37 37 -37 10 0 -23 -10 -26 -28 -8 -14 14 -16 32 -3 23 5 -3 12 -2
15 3 3 5 -9 8 -27 8 -26 -1 -33 3 -35 22 -3 18 -10 22 -43 22 -28 0 -39 4 -39
15 0 8 -10 16 -22 16 -13 1 -39 3 -59 4 -20 1 -42 6 -49 10 -22 14 18 23 80
19 37 -2 25 1 -35 11 -110 16 -155 18 -155 6 0 -6 19 -12 43 -14 23 -2 4 -4
-42 -5 -77 -2 -83 -1 -65 13 17 14 15 15 -26 9 -25 -3 -55 -7 -68 -10 -12 -2
-33 3 -46 11 -13 9 -30 13 -39 10 -8 -4 -18 -2 -22 4 -3 6 -25 11 -48 11 -68
0 -247 23 -247 32 0 4 18 8 40 8 29 0 40 4 40 15 0 19 5 19 38 1 59 -31 682
-45 682 -15 0 5 36 9 80 9 75 0 80 1 80 21 0 20 3 21 80 14 78 -7 80 -7 80 15
0 21 4 22 50 18 38 -4 53 -1 65 12 8 9 12 20 8 23 -3 4 3 7 15 7 13 0 22 -6
22 -15z m2720 -72 c0 -33 -19 -38 -30 -8 -13 34 -13 34 10 32 14 -1 20 -8 20
-24z m-4240 -13 c0 -11 -4 -20 -9 -20 -14 0 -23 18 -16 30 10 17 25 11 25 -10z
m1040 10 c0 -5 -18 -10 -40 -10 -22 0 -40 5 -40 10 0 6 18 10 40 10 22 0 40
-4 40 -10z m3217 -70 c2 0 3 -18 3 -40 0 -45 -19 -56 -21 -12 -1 20 -2 22 -6
7 -10 -41 -23 -39 -24 6 -1 24 -3 36 -6 27 -6 -24 -23 -23 -23 0 0 27 8 31 43
21 18 -5 33 -9 34 -9z m-3399 -77 c-16 -2 -40 -2 -55 0 -16 2 -3 4 27 4 30 0
43 -2 28 -4z m3590 -25 c-2 -13 -10 -23 -18 -23 -8 0 -16 10 -18 23 -3 17 2
22 18 22 16 0 21 -5 18 -22z m29 -10 c-3 -8 -6 -5 -6 6 -1 11 2 17 5 13 3 -3
4 -12 1 -19z m-1477 -43 c-7 -8 -16 -15 -21 -15 -5 0 -9 7 -9 15 0 9 9 15 21
15 18 0 19 -2 9 -15z m-1884 -8 c4 -4 -11 -7 -34 -7 -23 0 -42 4 -42 8 0 10
66 9 76 -1z m8564 -77 l0 -80 -40 0 c-37 0 -40 -2 -40 -26 0 -27 0 -27 -61
-20 -34 3 -70 6 -80 6 -12 0 -19 7 -19 20 0 18 7 20 80 20 l80 0 0 80 0 80 40
0 40 0 0 -80z m-5894 3 c-11 -11 -19 6 -11 24 8 17 8 17 12 0 3 -10 2 -21 -1
-24z m-1466 -73 c0 -5 -4 -10 -10 -10 -5 0 -10 5 -10 10 0 6 5 10 10 10 6 0
10 -4 10 -10z m7150 -130 c0 -29 -4 -40 -15 -40 -11 0 -15 11 -15 40 0 29 4
40 15 40 11 0 15 -11 15 -40z m290 0 c0 -5 -18 -10 -40 -10 -22 0 -40 5 -40
10 0 6 18 10 40 10 22 0 40 -4 40 -10z m-8320 -20 c0 -5 -18 -10 -40 -10 -22
0 -40 5 -40 10 0 6 18 10 40 10 22 0 40 -4 40 -10z m1118 -12 c9 -9 8 -15 -3
-27 -8 -9 -31 -35 -51 -58 -27 -32 -44 -43 -68 -44 -23 -1 -25 -3 -8 -6 12 -2
22 -7 22 -11 0 -15 -56 -62 -74 -63 -18 -1 -18 -2 -3 -6 16 -4 13 -11 -18 -54
-19 -27 -35 -51 -35 -53 0 -2 19 -14 42 -26 55 -28 97 -62 97 -77 1 -17 -9
-16 -33 2 -19 14 -36 12 -36 -5 0 -5 6 -7 13 -4 7 2 20 -7 27 -22 14 -26 13
-28 -28 -64 -23 -21 -58 -45 -78 -55 -34 -16 -146 -26 -158 -14 -10 10 75 170
93 176 31 10 61 26 56 32 -3 2 -11 -1 -17 -7 -19 -19 -40 -15 -33 7 6 20 -16
31 -67 31 -16 0 -28 3 -28 7 0 17 98 164 139 207 54 57 133 111 178 120 18 4
35 12 38 17 8 12 19 11 33 -3z m122 -103 c39 -19 70 -39 70 -44 0 -8 -96 -201
-104 -209 -7 -6 -164 89 -169 103 -5 10 117 185 128 185 3 0 37 -16 75 -35z
m-2200 -35 c0 -5 -18 -10 -40 -10 -22 0 -40 5 -40 10 0 6 18 10 40 10 22 0 40
-4 40 -10z m-560 -20 c0 -5 20 -10 45 -10 31 0 55 -8 81 -25 34 -23 45 -25
159 -25 97 0 125 -3 135 -15 12 -15 4 -21 -24 -16 -4 1 -17 -1 -27 -4 -24 -8
-15 -25 12 -25 11 0 18 -4 15 -9 -4 -5 -71 -7 -161 -4 -140 5 -155 4 -155 -10
0 -15 37 -24 73 -18 4 1 10 -5 13 -14 3 -8 21 -17 39 -21 24 -4 34 -12 38 -30
2 -13 2 -26 -1 -28 -9 -10 -127 7 -147 20 -11 8 -29 14 -42 14 -29 0 -38 17
-13 25 29 9 25 22 -10 30 -16 4 -30 12 -30 20 0 15 -44 25 -111 25 -27 0 -49
5 -49 10 0 6 12 10 28 10 18 0 23 3 14 9 -11 6 -10 15 4 44 15 31 23 37 50 37
18 0 36 5 39 10 3 6 10 10 16 10 5 0 9 -4 9 -10z m9230 -130 c0 -29 -4 -40
-15 -40 -11 0 -15 11 -15 40 0 29 4 40 15 40 11 0 15 -11 15 -40z m-9310 -70
c0 -13 -11 -13 -30 0 -12 8 -11 10 8 10 12 0 22 -4 22 -10z m4335 -71 c39 -20
86 -45 105 -55 19 -11 37 -22 38 -26 2 -5 8 -8 14 -8 6 0 29 -13 53 -29 23
-16 60 -34 81 -41 22 -6 59 -21 84 -32 65 -30 128 -48 169 -48 20 0 45 -7 55
-15 25 -19 46 -19 46 0 0 19 9 19 34 0 13 -10 32 -12 62 -8 27 3 49 1 57 -6 8
-6 16 -8 20 -5 3 3 8 -4 12 -16 8 -25 -10 -50 -35 -50 -10 0 -32 -12 -49 -26
-56 -47 -139 -58 -163 -22 -10 14 -29 23 -59 27 -31 5 -43 11 -42 21 2 12 -10
14 -65 12 -38 -2 -93 1 -123 7 -30 6 -67 13 -84 15 -152 23 -210 45 -202 76 4
17 -2 18 -79 16 -91 -4 -100 1 -106 49 -4 35 23 68 73 89 l34 15 -29 1 c-23 0
-27 3 -21 18 4 9 9 34 12 54 6 42 4 42 108 -13z m735 6 c0 -8 -7 -15 -15 -15
-16 0 -20 12 -8 23 11 12 23 8 23 -8z m30 5 c0 -5 -2 -10 -4 -10 -3 0 -8 5
-11 10 -3 6 -1 10 4 10 6 0 11 -4 11 -10z m90 0 c8 -5 12 -12 9 -15 -8 -8 -39
5 -39 16 0 11 11 11 30 -1z m3800 -30 l0 -40 -40 0 -40 0 0 40 0 40 40 0 40 0
0 -40z m-6330 0 c0 -5 7 -10 15 -10 8 0 15 -6 15 -14 0 -19 -23 -33 -28 -18
-2 7 -10 12 -18 12 -8 0 -14 9 -14 20 0 11 7 20 15 20 8 0 15 -4 15 -10z
m-342 -35 c2 -1 -5 -19 -14 -39 -14 -29 -23 -36 -46 -36 -38 0 -39 30 0 31 16
1 20 3 10 6 -21 5 -21 8 -7 34 7 15 16 18 32 13 12 -3 23 -8 25 -9z m-2318 -5
c0 -5 -5 -10 -11 -10 -5 0 -7 5 -4 10 3 6 8 10 11 10 2 0 4 -4 4 -10z m2655
-16 c13 -10 16 -17 9 -22 -6 -4 -17 -18 -24 -32 l-13 -25 23 20 c12 11 28 32
36 47 8 16 19 28 24 28 15 0 12 -19 -5 -36 -8 -9 -15 -20 -15 -25 0 -5 7 -9
15 -9 23 0 18 -18 -17 -62 -69 -88 -222 -154 -333 -145 -35 2 -67 7 -73 11
-10 6 -1 68 19 116 9 24 14 26 78 26 82 1 142 27 198 84 42 44 49 46 78 24z
m2622 1 c9 -25 -4 -29 -17 -6 -7 15 -7 21 0 21 6 0 13 -7 17 -15z m3793 -25
c0 -29 -4 -40 -15 -40 -11 0 -15 11 -15 40 0 29 4 40 15 40 11 0 15 -11 15
-40z m-6313 15 c7 -20 -2 -29 -21 -22 -9 4 -13 13 -10 22 8 19 23 19 31 0z
m2290 -7 c-3 -8 -6 -5 -6 6 -1 11 2 17 5 13 3 -3 4 -12 1 -19z m-4087 2 c0 -5
-13 -10 -30 -10 -16 0 -30 5 -30 10 0 6 14 10 30 10 17 0 30 -4 30 -10z m4288
-25 c-3 -3 -9 2 -12 12 -6 14 -5 15 5 6 7 -7 10 -15 7 -18z m-5108 -11 c0 -15
-63 -20 -94 -8 -25 9 -19 22 12 26 44 5 82 -3 82 -18z m5133 -11 c-8 -3 -11
-15 -8 -31 5 -26 5 -26 -6 -5 -9 18 -9 26 1 38 7 9 16 13 19 9 3 -4 0 -9 -6
-11z m-3009 -9 c26 -10 18 -24 -14 -24 -20 0 -30 5 -30 15 0 16 17 19 44 9z
m6616 -34 c0 -29 -4 -40 -15 -40 -11 0 -15 11 -15 40 0 29 4 40 15 40 11 0 15
-11 15 -40z m-8357 -11 c20 -5 37 -14 37 -19 0 -10 -29 -12 -145 -10 -78 1
-115 8 -115 20 0 19 165 26 223 9z m1735 -6 c2 -9 -7 -13 -27 -13 -21 0 -31 5
-31 16 0 19 51 16 58 -3z m-2189 -13 c11 -7 1 -9 -37 -10 -29 0 -51 3 -49 8 8
11 68 13 86 2z m2171 -35 c0 -26 -19 -32 -54 -19 -22 9 2 44 31 44 18 0 23 -6
23 -25z m2724 4 c-8 -14 -24 -10 -24 6 0 9 6 12 15 9 8 -4 12 -10 9 -15z m313
-1 c-3 -8 -6 -5 -6 6 -1 11 2 17 5 13 3 -3 4 -12 1 -19z m-4146 1 c-16 -6 -28
-6 -35 1 -7 7 1 10 25 9 32 0 33 -1 10 -10z m-1345 -58 c-4 -5 -1 -11 6 -13 8
-3 4 -12 -10 -26 l-23 -23 7 28 c8 32 13 43 20 43 3 0 3 -4 0 -9z m9044 -41
c0 -36 3 -40 25 -40 16 0 25 -6 25 -15 0 -11 -11 -15 -40 -15 l-40 0 0 55 c0
42 3 55 15 55 11 0 15 -11 15 -40z m-3570 -11 c0 -11 -4 -17 -10 -14 -5 3 -10
13 -10 21 0 8 5 14 10 14 6 0 10 -9 10 -21z m110 -79 c0 -13 -20 -13 -40 0
-12 8 -9 10 13 10 15 0 27 -4 27 -10z m-6005 -30 c4 -6 -12 -10 -39 -10 -25 0
-46 5 -46 10 0 6 18 10 39 10 22 0 43 -4 46 -10z m6011 -7 c-7 -7 -77 -5 -85
2 -2 3 17 5 44 5 27 0 45 -3 41 -7z m-796 -86 c13 -5 13 -6 -1 -6 -8 -1 -24 6
-35 15 -19 15 -19 15 1 6 11 -5 27 -12 35 -15z m720 3 c0 -5 -2 -10 -4 -10 -3
0 -8 5 -11 10 -3 6 -1 10 4 10 6 0 11 -4 11 -10z m2940 -5 c0 -11 -11 -15 -40
-15 -29 0 -40 4 -40 15 0 11 11 15 40 15 29 0 40 -4 40 -15z m-3582 -103 c2
-15 -2 -22 -12 -22 -11 0 -16 9 -16 26 0 31 23 28 28 -4z m3292 -82 c0 -38 -2
-40 -30 -40 -28 0 -30 2 -30 40 0 38 2 40 30 40 28 0 30 -2 30 -40z m240 0 c0
-29 -4 -40 -15 -40 -9 0 -15 9 -15 25 0 25 -1 25 -80 25 -64 0 -80 3 -80 15 0
12 17 15 95 15 l95 0 0 -40z m-3570 -12 c0 -12 -28 -9 -36 3 -3 6 0 15 7 20
13 7 28 -5 29 -23z m3860 -13 c0 -8 -8 -15 -19 -15 -10 0 -24 -7 -31 -15 -19
-23 -30 -18 -30 15 0 28 2 30 40 30 29 0 40 -4 40 -15z m-4955 -28 c-48 -33
-314 -161 -320 -155 -2 2 30 27 73 56 82 55 201 110 242 111 23 1 24 0 5 -12z
m1095 -21 c0 -2 -7 -7 -16 -10 -8 -3 -12 -2 -9 4 6 10 25 14 25 6z m-1100 -26
c-8 -6 -10 -10 -5 -10 6 0 3 -5 -5 -10 -8 -5 -31 -9 -50 -9 l-35 1 50 23 c46
22 78 25 45 5z m-4365 0 c-3 -5 -19 -10 -35 -10 -16 0 -32 5 -35 10 -4 6 10
10 35 10 25 0 39 -4 35 -10z m5612 -54 c-2 -6 -9 -1 -16 12 -6 12 -9 28 -5 34
8 13 27 -28 21 -46z m-397 23 c0 -11 -4 -17 -10 -14 -5 3 -10 13 -10 21 0 8 5
14 10 14 6 0 10 -9 10 -21z m156 -24 c-11 -8 -22 -12 -25 -9 -6 6 19 24 34 24
6 -1 1 -7 -9 -15z m-96 -59 c0 -5 -13 4 -29 20 -16 16 -27 33 -23 38 5 10 52
-42 52 -58z m-946 14 c25 0 35 -6 44 -25 26 -57 12 -88 -47 -105 -25 -7 -38
-4 -66 13 -19 12 -34 25 -35 28 0 3 14 23 30 44 24 30 28 41 18 48 -9 6 -8 7
5 3 10 -3 33 -6 51 -6z m3316 -145 c0 -8 -7 -15 -15 -15 -16 0 -20 12 -8 23
11 12 23 8 23 -8z m-8190 -55 c0 -5 -11 -10 -25 -10 -14 0 -25 5 -25 10 0 6
11 10 25 10 14 0 25 -4 25 -10z m50 0 c0 -5 -4 -10 -10 -10 -5 0 -10 5 -10 10
0 6 5 10 10 10 6 0 10 -4 10 -10z m562 -30 c16 -17 26 -35 23 -40 -11 -18 -23
-10 -18 10 4 16 0 20 -19 20 -24 0 -48 16 -48 32 0 18 35 6 62 -22z m4644 -44
c-33 -59 -56 -82 -56 -57 0 25 78 137 88 126 2 -2 -12 -33 -32 -69z m-5088 38
c12 -4 22 -10 22 -15 0 -15 -57 -10 -70 6 -10 12 -9 15 6 15 11 0 29 -3 42 -6z
m262 -24 c0 -17 -7 -20 -49 -20 -100 0 -152 25 -68 33 106 9 117 8 117 -13z
m107 14 c-3 -3 -12 -4 -19 -1 -8 3 -5 6 6 6 11 1 17 -2 13 -5z m-187 -54 c0
-5 -4 -10 -9 -10 -6 0 -13 5 -16 10 -3 6 1 10 9 10 9 0 16 -4 16 -10z m5749
-96 c-6 -54 -14 -101 -16 -104 -5 -5 6 136 13 170 1 8 3 21 3 29 1 8 3 12 6 9
3 -3 0 -50 -6 -104z m-5399 36 c0 -6 -25 -10 -57 -9 -44 1 -52 3 -33 9 36 12
90 12 90 0z m-130 -30 c0 -5 -9 -10 -20 -10 -11 0 -20 5 -20 10 0 6 9 10 20
10 11 0 20 -4 20 -10z m35 0 c3 -5 1 -10 -4 -10 -6 0 -11 5 -11 10 0 6 2 10 4
10 3 0 8 -4 11 -10z m80 -80 c3 -5 1 -10 -4 -10 -6 0 -11 5 -11 10 0 6 2 10 4
10 3 0 8 -4 11 -10z m4969 2 c3 -5 -3 -15 -12 -23 -9 -8 -56 -47 -103 -86
l-87 -72 -4 57 c-5 56 -5 57 36 94 38 35 45 38 103 38 34 0 64 -4 67 -8z
m-5064 -52 c0 -22 -8 -25 -30 -10 -13 9 -13 11 0 20 22 15 30 12 30 -10z
m1210 -10 c0 -5 -22 -26 -50 -47 -27 -20 -50 -43 -50 -50 0 -14 48 -18 160
-14 36 1 97 4 135 5 39 2 95 6 126 11 50 7 62 5 105 -19 27 -14 67 -33 89 -42
39 -16 39 -17 15 -24 -38 -12 -80 -11 -80 1 0 5 -5 7 -12 3 -7 -4 -109 -9
-227 -10 -144 -2 -217 -6 -219 -13 -4 -13 -168 -15 -176 -3 -3 5 11 26 30 47
19 21 34 48 34 60 0 30 76 100 113 104 4 1 7 -3 7 -9z m-1450 -15 c0 -11 -11
-15 -40 -15 -29 0 -40 4 -40 15 0 11 11 15 40 15 29 0 40 -4 40 -15z m143 8
c-13 -2 -33 -2 -45 0 -13 2 -3 4 22 4 25 0 35 -2 23 -4z m831 -51 c4 -2 2 -8
-5 -13 -8 -4 -19 -35 -25 -68 -10 -56 -9 -59 8 -50 10 5 25 21 34 34 10 16 26
25 41 25 18 0 24 4 19 15 -3 8 -1 15 4 15 15 0 6 -51 -15 -90 -10 -19 -68
-138 -127 -264 -62 -131 -118 -236 -130 -245 -32 -23 -148 -70 -148 -60 0 14
157 386 193 457 23 44 44 72 63 82 16 8 31 16 33 17 2 2 -2 27 -9 57 -7 30
-10 66 -6 80 6 23 10 25 34 20 15 -4 31 -9 36 -12z m86 9 c0 -5 -11 -11 -25
-13 -24 -5 -32 2 -18 15 9 10 43 8 43 -2z m628 2 c-21 -2 -55 -2 -75 0 -21 2
-4 4 37 4 41 0 58 -2 38 -4z m-1732 -13 c25 -10 26 -12 10 -29 -9 -9 -13 -20
-10 -24 11 -11 -45 -19 -81 -13 l-34 7 37 34 c42 39 41 39 78 25z m187 -17
c-13 -2 -33 -2 -45 0 -13 2 -3 4 22 4 25 0 35 -2 23 -4z m910 -10 c-7 -2 -19
-2 -25 0 -7 3 -2 5 12 5 14 0 19 -2 13 -5z m84 -78 c13 -10 13 -12 -15 -95 -3
-8 -4 -18 -4 -22 1 -5 -3 -8 -9 -8 -21 0 -89 23 -89 30 0 21 23 69 36 74 8 3
14 13 14 21 0 9 4 14 9 11 5 -3 12 4 15 17 6 22 7 22 18 2 6 -11 18 -24 25
-30z m-542 -64 c8 -14 -23 -21 -91 -20 -34 1 -71 -2 -83 -6 -12 -4 -21 -2 -21
4 0 6 17 11 38 12 20 1 48 5 62 9 35 11 88 12 95 1z m5460 -74 c11 14 14 15
14 3 0 -19 -24 -52 -32 -44 -3 3 -4 -2 -1 -13 8 -32 -51 -110 -108 -143 -54
-30 -88 -38 -88 -20 0 5 17 18 38 29 20 11 51 34 69 53 30 32 81 126 84 158 1
8 4 2 6 -13 4 -27 5 -28 18 -10z m65 6 c0 -3 -7 -15 -16 -24 -15 -17 -15 -22
6 -73 12 -31 33 -68 46 -83 24 -28 24 -28 4 -47 -25 -26 -32 -18 -65 69 -32
84 -34 119 -10 145 18 20 35 26 35 13z m-2570 -133 c0 -5 -2 -10 -4 -10 -3 0
-8 5 -11 10 -3 6 -1 10 4 10 6 0 11 -4 11 -10z m2820 -4 c0 -3 -4 -8 -10 -11
-5 -3 -10 -1 -10 4 0 6 5 11 10 11 6 0 10 -2 10 -4z m-2790 -65 c-1 -10 -6 -7
-15 9 -19 33 -18 50 0 26 8 -11 15 -27 15 -35z m33 -63 c10 -16 14 -28 9 -28
-8 0 -32 43 -32 57 0 7 1 6 23 -29z m-392 -167 c-14 -86 -40 -173 -50 -167 -7
5 -27 -22 -86 -113 -6 -9 -14 -22 -18 -28 -6 -10 -14 -10 -38 2 -16 9 -30 20
-30 25 -1 6 -3 15 -4 20 -1 6 -3 17 -4 25 0 8 -8 15 -16 15 -8 0 -26 18 -40
40 -14 23 -32 43 -40 47 -8 3 -15 12 -15 20 0 8 -13 20 -30 26 -30 11 -41 27
-19 27 23 0 85 -45 152 -109 38 -36 76 -66 85 -66 24 0 28 42 5 49 -31 10
-121 96 -101 96 10 0 30 -14 45 -31 21 -23 33 -29 51 -24 13 3 30 1 37 -5 7
-6 16 -7 19 -2 2 4 19 71 37 148 17 76 39 153 48 169 l16 30 3 -64 c2 -35 -2
-94 -7 -130z m-1146 39 c-3 -5 -12 -10 -18 -10 -15 0 -87 -62 -87 -74 0 -5 8
-3 18 5 53 43 103 59 208 68 l82 6 -44 -44 c-24 -24 -44 -50 -44 -57 0 -8 -5
-14 -11 -14 -6 0 -9 -7 -5 -15 3 -8 1 -15 -4 -15 -6 0 -10 5 -10 11 0 5 -5 7
-10 4 -16 -10 7 -33 38 -38 15 -3 1 -4 -30 -2 -41 2 -58 -1 -62 -11 -9 -23
-26 -16 -26 12 0 38 16 61 51 73 32 11 31 31 -1 31 -24 0 -63 -38 -80 -80 -12
-29 -12 -34 5 -46 17 -13 17 -14 -7 -23 -48 -18 -110 -32 -116 -27 -3 4 3 13
14 22 16 13 17 15 2 10 -10 -3 -18 -1 -18 5 0 6 -5 7 -11 4 -5 -4 -9 -21 -7
-38 3 -29 0 -32 -28 -35 -22 -2 -34 -9 -37 -23 -3 -11 -14 -19 -27 -19 -20 0
-22 4 -16 34 8 43 -9 57 -26 21 -6 -14 -21 -28 -33 -31 -11 -3 -27 -15 -34
-26 -12 -19 -11 -20 6 -13 21 8 63 15 63 10 0 -2 -12 -17 -27 -32 -21 -21 -37
-27 -65 -26 -21 0 -38 -3 -38 -8 0 -5 5 -9 10 -9 23 0 8 -29 -25 -49 l-35 -20
6 27 c4 15 11 29 16 30 4 2 6 8 2 13 -6 11 -94 -60 -94 -76 0 -6 -14 -19 -30
-28 -26 -16 -31 -16 -36 -4 -3 8 -5 21 -3 28 3 28 -1 38 -16 33 -11 -5 -15 1
-15 20 0 14 -4 26 -10 26 -5 0 -10 11 -10 25 0 14 -4 25 -10 25 -36 0 41 82
109 118 14 7 49 31 78 53 29 21 59 39 67 39 8 0 21 6 28 13 38 34 176 88 223
86 27 -1 26 -2 -15 -15 -45 -14 -45 -14 -6 -8 40 6 76 23 76 36 0 5 11 8 25 8
14 0 25 4 25 9 0 9 25 17 63 20 10 0 15 -3 12 -9z m1475 -8 c0 -12 -55 -61
-125 -112 -33 -24 -61 -47 -63 -52 -2 -4 -9 -8 -16 -8 -7 0 -21 -10 -32 -21
-10 -12 -35 -32 -55 -45 -20 -12 -53 -40 -72 -61 -35 -36 -67 -41 -34 -5 10
10 17 30 17 43 0 30 17 49 36 42 8 -3 72 38 146 93 176 132 198 146 198 126z
m-1095 -22 c-3 -5 -25 -10 -48 -10 -31 0 -38 3 -27 10 20 13 83 13 75 0z m975
2 c0 -15 -24 -32 -47 -32 -13 0 -23 5 -23 11 0 5 4 8 9 5 5 -3 11 1 15 9 6 15
46 21 46 7z m-1095 -29 c-11 -7 -27 -11 -37 -7 -13 4 -18 0 -18 -15 0 -14 -6
-21 -20 -21 -29 0 -24 12 17 41 22 16 45 24 56 21 19 -5 19 -6 2 -19z m1716
-26 c-1 -12 -15 -9 -19 4 -3 6 1 10 8 8 6 -3 11 -8 11 -12z m-3335 -41 c2 -18
-7 -42 -27 -68 -16 -23 -29 -46 -29 -53 0 -6 -20 -28 -45 -49 -30 -26 -45 -47
-45 -62 0 -15 -6 -24 -15 -24 -28 0 -15 54 38 159 65 125 116 165 123 97z
m4394 -36 c0 -8 -7 -2 -15 14 -19 36 -19 45 0 20 8 -10 14 -26 15 -34z m-1606
26 c-10 -8 -21 -12 -24 -10 -5 6 21 24 34 24 6 0 1 -6 -10 -14z m112 -17 c9
-16 -26 -46 -63 -54 -28 -6 -33 -4 -33 12 0 12 13 25 33 35 40 19 54 21 63 7z
m244 -84 c0 -12 7 -42 15 -66 16 -46 10 -59 -28 -59 -10 0 -15 -4 -12 -10 3
-5 2 -10 -2 -10 -19 0 -33 -39 -23 -64 6 -16 6 -27 -1 -31 -14 -9 -3 -21 48
-49 35 -20 48 -23 54 -14 4 7 6 16 3 20 -13 21 62 89 97 87 8 0 4 -5 -9 -11
-29 -14 -85 -96 -76 -110 4 -7 2 -8 -4 -4 -15 9 -15 10 7 -54 11 -30 24 -56
30 -58 16 -5 13 -29 -4 -36 -35 -13 6 -70 61 -85 34 -9 38 -25 7 -29 -12 -2
-25 -13 -29 -25 -4 -12 -11 -25 -17 -28 -11 -8 38 -41 121 -83 28 -14 52 -29
52 -32 0 -16 -75 15 -154 62 -88 54 -148 78 -162 66 -4 -4 -4 6 0 21 6 24 2
33 -26 58 -38 33 -51 37 -45 12 3 -10 2 -36 -1 -58 l-7 -41 -42 9 c-41 8 -60
27 -28 27 9 0 18 7 21 15 4 8 12 15 20 15 17 0 19 16 3 26 -6 3 -8 15 -6 26 4
15 -6 27 -39 51 -40 28 -66 68 -88 132 -6 15 -9 16 -15 6 -5 -7 -14 -10 -20
-6 -7 4 -17 3 -24 -2 -7 -5 -30 -11 -51 -12 -31 -2 -48 -11 -77 -42 -25 -27
-46 -39 -61 -38 -59 5 -68 1 -68 -34 0 -18 -5 -38 -12 -45 -16 -16 -65 -15
-71 1 -5 14 11 49 27 59 16 10 -22 46 -52 50 -23 3 -28 9 -36 50 -4 27 -5 56
-1 65 6 17 7 17 19 1 17 -24 29 -23 17 1 -12 22 -5 31 25 31 17 0 24 -7 29
-32 15 -78 27 -128 32 -128 3 0 41 24 85 52 129 86 124 101 -82 251 -24 17
-24 17 10 1 19 -9 43 -21 53 -26 21 -10 22 0 2 22 -9 10 -17 27 -20 39 -3 16
1 21 19 21 33 0 146 -47 173 -72 31 -29 30 -58 -2 -58 -30 0 -31 -11 -7 -61
21 -46 56 -51 50 -7 -3 15 -1 25 4 22 4 -3 8 -13 8 -22 1 -20 29 -73 30 -55 0
7 -9 35 -20 63 -27 68 -26 90 3 90 12 0 35 -7 51 -15 28 -15 28 -15 22 10 -4
14 -16 35 -27 46 -30 30 -23 80 14 97 23 11 28 19 24 39 -6 30 -1 32 104 41
l84 7 13 -29 c6 -15 12 -38 12 -51z m560 74 c36 -5 89 -17 119 -26 43 -12 51
-17 38 -25 -10 -5 -17 -16 -17 -24 0 -8 -11 -31 -24 -52 -12 -20 -27 -48 -31
-62 -4 -14 -15 -36 -24 -50 -9 -14 -26 -50 -38 -80 -79 -208 -77 -206 -158
-195 -68 8 -108 39 -128 98 l-14 43 69 144 c38 80 79 166 90 193 23 52 22 52
118 36z m1120 -17 c20 -16 21 -21 11 -41 -12 -22 -13 -22 -32 -5 -19 17 -27
64 -10 64 5 0 19 -8 31 -18z m-1506 -62 c-23 -23 -31 -27 -43 -17 -12 10 -11
13 5 16 10 2 28 10 39 17 30 21 29 17 -1 -16z m-6044 -20 c0 -5 -4 -10 -9 -10
-6 0 -13 5 -16 10 -3 6 1 10 9 10 9 0 16 -4 16 -10z m4860 -20 c0 -5 -2 -10
-4 -10 -3 0 -8 5 -11 10 -3 6 -1 10 4 10 6 0 11 -4 11 -10z m-5013 -16 c-3 -3
-12 -4 -19 -1 -8 3 -5 6 6 6 11 1 17 -2 13 -5z m5718 -4 c3 -6 -1 -7 -9 -4
-18 7 -21 14 -7 14 6 0 13 -4 16 -10z m-435 -30 c0 -5 -4 -10 -10 -10 -5 0
-10 5 -10 10 0 6 5 10 10 10 6 0 10 -4 10 -10z m7680 -31 c0 -10 -4 -19 -10
-19 -20 0 -10 -19 12 -22 30 -4 34 -24 6 -32 -17 -4 -29 1 -47 21 -14 16 -19
29 -12 31 6 2 11 9 11 16 0 16 21 36 32 30 4 -3 8 -14 8 -25z m-5051 -1 c-1
-13 3 -43 9 -67 9 -37 8 -46 -7 -63 -18 -18 -18 -18 -25 12 -3 18 -13 47 -22
66 -16 32 -15 36 1 54 24 27 45 25 44 -2z m-659 8 c0 -3 -4 -8 -10 -11 -5 -3
-10 -1 -10 4 0 6 5 11 10 11 6 0 10 -2 10 -4z m-2625 -20 c125 -8 323 -90 388
-160 9 -10 17 -16 17 -12 0 4 28 -20 61 -54 34 -33 59 -63 56 -67 -4 -3 -29
18 -58 46 -52 52 -176 141 -196 141 -6 0 -16 6 -22 14 -10 12 -52 28 -181 67
-54 17 -42 15 -180 19 -73 2 -102 5 -80 9 19 4 53 6 75 4 22 -1 76 -5 120 -7z
m520 -16 c3 -5 2 -10 -4 -10 -5 0 -13 5 -16 10 -3 6 -2 10 4 10 5 0 13 -4 16
-10z m3255 -14 c0 -13 -6 -26 -14 -29 -11 -5 -12 0 -3 24 14 35 17 36 17 5z
m-1590 5 c0 -13 -29 -35 -37 -28 -7 8 15 37 28 37 5 0 9 -4 9 -9z m-2735 -40
c-11 -10 -31 -22 -45 -26 -18 -5 -14 1 15 19 48 30 56 32 30 7z m1995 4 c-7
-9 -15 -13 -17 -11 -7 7 7 26 19 26 6 0 6 -6 -2 -15z m-1890 -2 c-8 -3 -27
-12 -42 -20 -16 -7 -28 -11 -28 -9 0 9 54 35 70 35 13 -1 13 -1 0 -6z m-645
-53 c0 -36 -22 -68 -46 -70 -4 0 -9 -9 -12 -20 -6 -22 -32 -27 -43 -8 -4 6 -1
16 7 22 8 6 30 35 49 63 19 29 37 53 40 53 3 0 5 -18 5 -40z m205 0 c0 -5 -5
-10 -11 -10 -5 0 -7 5 -4 10 3 6 8 10 11 10 2 0 4 -4 4 -10z m320 -10 c-14
-11 -30 -20 -35 -20 -6 0 -21 -10 -35 -23 -36 -32 -80 -59 -80 -48 0 5 17 20
38 32 20 13 39 26 42 30 8 11 74 49 85 49 6 0 -1 -9 -15 -20z m2760 -4 c0 -8
-7 -16 -15 -20 -10 -4 -15 1 -15 14 0 11 7 20 15 20 8 0 15 -6 15 -14z m-1995
-30 c136 -57 153 -65 159 -74 2 -4 50 -37 106 -72 56 -35 109 -77 118 -92 9
-15 37 -37 62 -49 24 -12 64 -34 87 -50 38 -27 42 -33 40 -69 -1 -22 -3 -40
-5 -40 -1 0 -22 9 -44 20 -50 24 -48 24 -48 5 0 -19 32 -52 57 -58 17 -4 17
-4 -1 -12 -11 -5 -21 -3 -25 4 -9 14 -57 5 -81 -14 -27 -22 -59 -24 -84 -4
-13 10 -32 19 -41 19 -14 0 -16 8 -13 45 2 25 0 45 -4 45 -5 0 -8 9 -8 20 0
13 -5 18 -15 14 -8 -4 -15 -3 -15 1 0 9 27 35 37 35 19 0 9 55 -16 92 -38 55
-128 85 -132 44 -1 -6 -4 2 -8 18 -5 22 -12 29 -33 32 -25 2 -27 0 -33 -51 -4
-30 -14 -60 -21 -66 -13 -10 -14 -5 -9 32 4 24 11 54 17 66 20 42 -27 120 -93
153 -86 44 -235 2 -251 -70 -2 -8 -7 -18 -12 -21 -5 -4 -6 -23 -2 -43 5 -27
12 -36 26 -36 11 0 21 -6 21 -12 1 -7 2 -26 3 -42 2 -35 47 -76 83 -76 15 0
24 -3 20 -6 -15 -15 -81 9 -108 39 -36 40 -48 30 -14 -12 34 -40 117 -66 183
-57 38 5 43 4 28 -5 -30 -19 -126 -14 -176 8 -62 28 -88 60 -102 126 -10 49
-10 60 8 99 24 54 80 117 119 134 55 24 133 17 220 -20z m-1135 4 c0 -13 -5
-18 -15 -14 -16 7 -19 17 -8 27 12 13 23 7 23 -13z m4260 -4 c0 -13 2 -30 5
-38 3 -7 -1 -22 -9 -33 -13 -18 -15 -17 -25 22 -6 22 -8 48 -5 57 10 25 34 19
34 -8z m-1761 -42 c-7 -8 -26 -22 -43 -31 -30 -15 -30 -15 9 25 22 22 42 36
43 31 2 -5 -2 -17 -9 -25z m2104 15 c-10 -9 -29 -20 -42 -24 -20 -6 -23 -4
-18 10 4 9 7 20 7 25 0 4 16 8 35 7 34 -1 35 -2 18 -18z m-3484 -38 c23 -22
41 -48 41 -58 0 -13 -5 -10 -19 12 -10 17 -33 43 -50 58 -18 15 -28 27 -23 27
6 0 29 -18 51 -39z m2031 16 c0 -8 -9 -13 -22 -11 -13 1 -27 3 -31 3 -5 1 -5
6 -2 11 9 15 55 12 55 -3z m-2023 -82 c18 -20 30 -42 26 -50 -7 -21 -23 -19
-23 3 -1 12 -5 9 -16 -10 -20 -37 -24 -35 -17 7 4 24 0 44 -16 70 -18 30 -18
34 -3 26 9 -5 31 -26 49 -46z m2033 24 c0 -17 -4 -28 -10 -24 -5 3 -10 17 -10
31 0 13 5 24 10 24 6 0 10 -14 10 -31z m1116 -14 c-4 -14 -11 -25 -16 -25 -5
0 -5 13 2 31 12 35 23 31 14 -6z m-2206 -46 c0 -24 -4 -29 -25 -29 -22 0 -24
-3 -15 -19 13 -25 13 -44 0 -36 -5 3 -10 -3 -10 -14 0 -17 -6 -21 -30 -21 -26
0 -29 3 -22 18 5 9 13 44 17 77 8 70 27 91 62 68 15 -10 23 -25 23 -44z m-420
19 c0 -16 -3 -19 -11 -11 -6 6 -8 16 -5 22 11 17 16 13 16 -11z m920 16 c0 -3
-6 -11 -13 -18 -10 -10 -15 -10 -24 -1 -7 7 -9 16 -6 19 8 8 43 8 43 0z
m-1085 -34 c3 -5 1 -10 -4 -10 -6 0 -11 5 -11 10 0 6 2 10 4 10 3 0 8 -4 11
-10z m42 -26 c-3 -3 -12 -4 -19 -1 -8 3 -5 6 6 6 11 1 17 -2 13 -5z m-244 -44
c4 -15 0 -20 -14 -20 -12 0 -19 7 -19 18 0 37 23 38 33 2z m4117 8 c0 -5 -6
-8 -14 -5 -7 3 -19 0 -25 -6 -8 -8 -11 -8 -11 1 0 13 31 32 42 26 5 -3 8 -10
8 -16z m-3300 -18 c0 -5 -7 -10 -16 -10 -8 0 -12 5 -9 10 3 6 10 10 16 10 5 0
9 -4 9 -10z m693 -73 c78 -74 87 -87 65 -87 -13 0 -158 141 -158 154 0 15 20
1 93 -67z m-678 33 c-3 -5 -13 -10 -22 -10 -8 0 -29 -6 -46 -14 -46 -20 -164
-56 -184 -56 -31 0 -3 13 109 51 116 39 154 47 143 29z m-168 -6 c-3 -3 -12
-4 -19 -1 -8 3 -5 6 6 6 11 1 17 -2 13 -5z m-192 -64 c3 -5 2 -10 -4 -10 -5 0
-13 5 -16 10 -3 6 -2 10 4 10 5 0 13 -4 16 -10z m445 -39 c0 -5 -6 -12 -12
-14 -8 -3 -6 -6 5 -6 28 -1 21 -31 -8 -31 -25 0 -31 13 -19 44 7 17 34 22 34
7z m-301 -92 c38 -38 73 -69 80 -69 6 0 19 -8 29 -17 9 -10 69 -42 132 -72
121 -57 150 -75 150 -98 0 -18 -137 -14 -145 5 -6 16 -25 15 -25 -2 0 -13 -20
-26 -41 -26 -5 0 -9 11 -9 23 0 33 -9 39 -34 22 -36 -26 -44 -19 -35 30 7 37
5 51 -13 85 -22 41 -38 52 -38 25 0 -8 -4 -15 -10 -15 -5 0 -10 11 -10 25 0
14 -4 25 -8 25 -5 0 -14 12 -21 27 -11 24 -14 26 -24 12 -9 -12 -16 -14 -29
-5 -13 8 -22 6 -37 -8 -21 -19 -21 -19 -21 17 0 23 5 37 13 37 6 1 3 8 -9 18
-16 14 -18 21 -10 34 14 23 33 11 115 -73z m-3959 77 c0 -2 -7 -9 -15 -16 -12
-10 -15 -10 -15 4 0 9 7 16 15 16 8 0 15 -2 15 -4z m6826 -15 c37 -35 65 -73
60 -79 -7 -6 -96 77 -96 90 0 13 15 9 36 -11z m-2396 -20 c7 -14 7 -20 -1 -23
-9 -3 -8 -10 1 -24 21 -34 1 -78 -37 -82 -25 -3 -35 3 -53 27 -27 39 -20 64
28 96 44 30 48 30 62 6z m-178 -35 c4 -6 8 -19 8 -29 0 -14 -6 -18 -27 -15
-19 2 -28 8 -27 21 1 9 2 24 3 32 1 16 30 10 43 -9z m-62 -8 c0 -7 -5 -20 -10
-28 -8 -12 -10 -9 -10 13 0 15 5 27 10 27 6 0 10 -6 10 -12z m-130 -36 c0 -14
-11 -21 -26 -15 -21 8 -17 23 6 23 11 0 20 -4 20 -8z m560 -47 c0 -8 -7 -15
-15 -15 -8 0 -15 7 -15 15 0 8 7 15 15 15 8 0 15 -7 15 -15z m-2326 -12 c-5
-14 -4 -15 4 -4 6 8 21 15 35 17 l24 2 -25 -48 -24 -48 -24 21 c-13 11 -24 29
-24 39 0 10 -4 18 -10 18 -5 0 -10 5 -10 10 0 6 13 10 30 10 23 0 28 -3 24
-17z m2386 7 c0 -5 -4 -10 -10 -10 -5 0 -10 5 -10 10 0 6 5 10 10 10 6 0 10
-4 10 -10z m-35 -41 c-8 -12 -35 -12 -35 0 0 11 22 20 33 14 4 -2 5 -9 2 -14z
m-3095 -49 c0 -11 -4 -20 -10 -20 -5 0 -10 9 -10 20 0 11 5 20 10 20 6 0 10
-9 10 -20z m2500 -22 c0 -16 -3 -19 -11 -11 -6 6 -8 16 -5 22 11 17 16 13 16
-11z m-3520 -48 c0 -5 -4 -10 -10 -10 -5 0 -10 5 -10 10 0 6 5 10 10 10 6 0
10 -4 10 -10z m4249 -53 c36 -2 45 -6 52 -26 9 -23 8 -24 -33 -18 -28 4 -52 0
-71 -10 -23 -12 -35 -12 -54 -4 -13 6 -35 8 -49 5 -19 -5 -23 -3 -18 10 3 9
12 16 19 16 6 0 22 9 34 19 14 12 32 18 49 15 15 -3 47 -6 71 -7z m3621 -48
c0 -5 -7 -9 -15 -9 -8 0 -15 7 -15 15 0 9 6 12 15 9 8 -4 15 -10 15 -15z"/>
<path d="M5278 5923 c7 -3 16 -2 19 1 4 3 -2 6 -13 5 -11 0 -14 -3 -6 -6z"/>
<path d="M5310 5884 c0 -8 5 -12 10 -9 6 3 10 10 10 16 0 5 -4 9 -10 9 -5 0
-10 -7 -10 -16z"/>
<path d="M5373 5849 c11 -7 23 -7 35 0 14 9 11 10 -18 10 -29 0 -32 -1 -17
-10z"/>
<path d="M7548 5753 c6 -2 18 -2 25 0 6 3 1 5 -13 5 -14 0 -19 -2 -12 -5z"/>
<path d="M7507 5663 c-13 -12 -7 -54 8 -59 15 -6 45 12 45 27 0 10 -29 39 -39
39 -4 0 -11 -3 -14 -7z"/>
<path d="M8072 5385 c0 -16 2 -22 5 -12 2 9 2 23 0 30 -3 6 -5 -1 -5 -18z"/>
<path d="M7607 5333 c-10 -16 -17 -213 -8 -213 11 0 31 203 21 213 -4 5 -10 5
-13 0z"/>
<path d="M8061 5220 c0 -8 4 -22 9 -30 12 -18 12 -2 0 25 -6 13 -9 15 -9 5z"/>
<path d="M7990 4918 c-3 -26 -1 -43 3 -39 5 5 7 26 5 47 l-3 39 -5 -47z"/>
<path d="M7269 4683 c-13 -17 -13 -17 6 -3 11 8 22 16 24 17 2 2 0 3 -6 3 -6
0 -17 -8 -24 -17z"/>
<path d="M7445 4339 c-4 -6 -5 -12 -2 -15 2 -3 7 2 10 11 7 17 1 20 -8 4z"/>
<path d="M7560 4320 c8 -5 20 -10 25 -10 6 0 3 5 -5 10 -8 5 -19 10 -25 10 -5
0 -3 -5 5 -10z"/>
<path d="M7480 4297 c0 -7 37 -47 44 -47 13 0 4 16 -19 33 -14 10 -25 16 -25
14z"/>
<path d="M5116 3441 c-3 -4 6 -6 19 -3 14 2 25 6 25 8 0 8 -39 4 -44 -5z"/>
<path d="M4066 3251 c-16 -3 -31 -11 -33 -17 -7 -21 22 -32 75 -27 41 4 52 9
52 23 0 26 -36 34 -94 21z"/>
<path d="M5140 3251 c0 -5 15 -20 34 -35 43 -32 59 -16 19 19 -28 25 -53 32
-53 16z"/>
<path d="M4833 3243 c-37 -7 -27 -21 18 -25 42 -4 62 8 38 23 -15 9 -19 9 -56
2z"/>
<path d="M4071 3164 c0 -11 3 -14 6 -6 3 7 2 16 -1 19 -3 4 -6 -2 -5 -13z"/>
<path d="M3258 2963 c7 -3 16 -2 19 1 4 3 -2 6 -13 5 -11 0 -14 -3 -6 -6z"/>
<path d="M3528 2923 c6 -2 18 -2 25 0 6 3 1 5 -13 5 -14 0 -19 -2 -12 -5z"/>
<path d="M3343 2884 c-17 -13 -17 -13 0 -14 9 0 17 -7 17 -15 0 -10 10 -15 34
-15 19 0 41 -3 50 -6 9 -3 16 -2 16 4 0 6 -16 16 -35 22 -19 6 -33 15 -30 20
9 14 -34 18 -52 4z"/>
<path d="M3849 2797 c-8 -8 -22 -12 -33 -9 -13 4 -17 1 -14 -9 3 -8 11 -14 19
-14 19 0 36 -28 21 -33 -16 -5 -15 -31 3 -66 8 -15 15 -29 15 -30 0 0 -24 0
-52 1 -29 2 -46 0 -38 -3 8 -3 24 -9 35 -14 11 -5 34 -11 51 -14 28 -4 114
-72 114 -89 0 -4 -7 -7 -16 -7 -11 0 -9 -8 12 -35 20 -27 30 -33 40 -24 7 6
18 8 24 4 16 -10 29 -49 19 -56 -12 -7 12 -69 27 -69 13 0 164 43 232 66 59
20 105 44 115 60 4 8 16 14 26 14 16 0 185 -63 256 -95 16 -8 59 -26 95 -40
62 -25 115 -48 187 -82 17 -8 42 -13 55 -11 18 3 4 13 -62 46 -47 24 -108 56
-135 71 -28 16 -66 32 -85 36 -18 4 -81 31 -139 60 -58 30 -151 71 -206 93
-55 22 -134 55 -175 75 -41 20 -122 52 -180 72 -113 39 -167 67 -139 73 14 3
81 -10 328 -63 41 -9 81 -14 90 -12 9 2 -11 10 -44 17 -33 7 -64 15 -70 16 -5
1 -55 12 -110 24 -92 19 -196 44 -237 56 -9 3 -22 -1 -29 -9z m61 -67 c0 -5
-4 -10 -9 -10 -6 0 -13 5 -16 10 -3 6 1 10 9 10 9 0 16 -4 16 -10z"/>
<path d="M4206 2782 c-3 -6 -1 -14 5 -17 14 -9 20 -2 10 14 -6 8 -11 9 -15 3z"/>
<path d="M3608 2723 c7 -3 16 -2 19 1 4 3 -2 6 -13 5 -11 0 -14 -3 -6 -6z"/>
<path d="M3362 2695 c12 -14 28 -23 34 -21 7 3 18 -1 24 -9 6 -8 18 -11 26 -8
16 6 19 33 4 33 -5 0 -10 6 -10 13 0 8 -17 13 -50 15 l-50 2 22 -25z"/>
<path d="M5420 2701 c0 -13 29 -35 37 -28 7 8 -15 37 -28 37 -5 0 -9 -4 -9 -9z"/>
<path d="M3390 2616 c0 -9 10 -20 23 -25 12 -5 31 -18 41 -30 17 -19 47 -21
64 -6 10 9 -31 65 -47 65 -10 0 -33 3 -50 6 -25 5 -31 3 -31 -10z"/>
<path d="M3548 2553 c7 -3 16 -2 19 1 4 3 -2 6 -13 5 -11 0 -14 -3 -6 -6z"/>
<path d="M3440 2489 c0 -5 5 -7 10 -4 6 3 10 8 10 11 0 2 -4 4 -10 4 -5 0 -10
-5 -10 -11z"/>
<path d="M3480 2492 c0 -14 45 -52 63 -52 22 0 30 17 12 24 -8 3 -15 12 -15
21 0 10 -10 15 -30 15 -16 0 -30 -4 -30 -8z"/>
<path d="M5662 2488 c2 -6 10 -14 16 -16 7 -2 10 2 6 12 -7 18 -28 22 -22 4z"/>
<path d="M3200 2456 c0 -9 7 -16 16 -16 17 0 14 22 -4 28 -7 2 -12 -3 -12 -12z"/>
<path d="M3644 2415 c-18 -14 -17 -14 14 -15 22 0 32 5 32 15 0 19 -21 19 -46
0z"/>
<path d="M3900 2420 c0 -5 5 -10 10 -10 6 0 10 5 10 10 0 6 -4 10 -10 10 -5 0
-10 -4 -10 -10z"/>
<path d="M3540 2389 c0 -19 37 -69 50 -69 19 0 20 44 2 62 -13 13 -52 19 -52
7z"/>
<path d="M3600 2389 c0 -5 5 -7 10 -4 6 3 10 8 10 11 0 2 -4 4 -10 4 -5 0 -10
-5 -10 -11z"/>
<path d="M4390 2330 c-11 -8 -7 -9 15 -4 37 8 45 14 19 14 -10 0 -26 -5 -34
-10z"/>
<path d="M3650 2159 c0 -5 5 -7 10 -4 6 3 10 8 10 11 0 2 -4 4 -10 4 -5 0 -10
-5 -10 -11z"/>
<path d="M3688 2163 c7 -3 16 -2 19 1 4 3 -2 6 -13 5 -11 0 -14 -3 -6 -6z"/>
<path d="M6228 3483 c7 -3 16 -2 19 1 4 3 -2 6 -13 5 -11 0 -14 -3 -6 -6z"/>
<path d="M6580 3883 c0 -10 49 -33 67 -33 8 0 24 -11 37 -25 l23 -25 11 25 c7
15 8 26 2 30 -6 4 -10 -1 -10 -9 0 -21 -1 -21 -60 14 -51 30 -70 36 -70 23z"/>
<path d="M6554 3848 c-4 -6 -3 -8 4 -4 6 3 14 1 17 -5 4 -6 27 -19 51 -29 24
-11 44 -24 44 -30 0 -5 5 -10 10 -10 6 0 10 6 10 13 0 18 -127 79 -136 65z"/>
<path d="M6542 3819 c2 -8 28 -27 56 -42 29 -16 52 -35 52 -43 0 -10 -16 -5
-57 17 -32 17 -60 35 -61 40 -2 5 -8 6 -13 3 -5 -3 18 -24 51 -46 37 -25 59
-46 56 -54 -3 -7 -1 -16 4 -19 5 -3 18 13 30 37 24 50 24 48 6 48 -7 0 -19 7
-26 15 -7 8 -19 15 -27 15 -8 0 -29 10 -45 22 -21 14 -29 17 -26 7z"/>
<path d="M4596 1228 c-9 -12 -14 -24 -12 -26 6 -6 56 29 56 39 0 17 -29 9 -44
-13z"/>
<path d="M4627 1166 c-4 -9 0 -13 11 -12 9 2 18 8 20 14 5 17 -25 15 -31 -2z"/>
<path d="M4337 1063 c-12 -11 -8 -23 8 -23 8 0 15 7 15 15 0 16 -12 20 -23 8z"/>
<path d="M6467 1124 c-6 -16 -13 -21 -30 -17 -17 5 -13 -3 19 -33 23 -21 49
-56 57 -76 12 -28 22 -38 39 -38 20 0 21 1 6 16 -13 13 -13 21 -5 45 6 16 15
29 19 29 4 0 8 4 8 8 0 5 -21 8 -47 8 l-48 -1 -5 40 c-5 33 -7 36 -13 19z"/>
<path d="M6450 928 c0 -2 9 -27 20 -55 24 -63 80 -155 80 -132 0 25 -50 152
-67 172 -14 14 -33 23 -33 15z"/>
<path d="M4580 279 c0 -5 5 -7 10 -4 6 3 10 8 10 11 0 2 -4 4 -10 4 -5 0 -10
-5 -10 -11z"/>
<path d="M4300 6387 c0 -22 8 -25 54 -16 24 4 67 9 95 10 96 5 63 19 -43 19
-82 0 -106 -3 -106 -13z"/>
<path d="M4670 6385 c7 -8 16 -15 21 -15 5 0 6 7 3 15 -4 8 -13 15 -21 15 -13
0 -13 -3 -3 -15z"/>
<path d="M5048 6393 c7 -3 16 -2 19 1 4 3 -2 6 -13 5 -11 0 -14 -3 -6 -6z"/>
<path d="M11120 6360 l0 -40 -120 0 -120 0 0 -40 0 -40 40 0 c29 0 40 -4 40
-15 0 -11 11 -15 40 -15 29 0 40 4 40 15 0 11 11 15 40 15 l40 0 0 40 0 40 40
0 40 0 0 40 0 40 -40 0 -40 0 0 -40z"/>
<path d="M4920 6381 c0 -5 5 -13 10 -16 6 -3 10 -2 10 4 0 5 -4 13 -10 16 -5
3 -10 2 -10 -4z"/>
<path d="M4372 6338 c6 -18 28 -21 28 -4 0 9 -7 16 -16 16 -9 0 -14 -5 -12
-12z"/>
<path d="M2222 6295 c0 -16 2 -22 5 -12 2 9 2 23 0 30 -3 6 -5 -1 -5 -18z"/>
<path d="M4845 6280 c3 -5 12 -7 20 -3 21 7 19 13 -6 13 -11 0 -18 -4 -14 -10z"/>
<path d="M4170 6260 c0 -5 5 -10 11 -10 5 0 7 5 4 10 -3 6 -8 10 -11 10 -2 0
-4 -4 -4 -10z"/>
<path d="M11283 6200 c0 -25 2 -35 4 -22 2 12 2 32 0 45 -2 12 -4 2 -4 -23z"/>
<path d="M11380 6200 c0 -33 3 -40 20 -40 17 0 20 7 20 40 0 33 -3 40 -20 40
-17 0 -20 -7 -20 -40z"/>
<path d="M11443 6120 c0 -25 2 -35 4 -22 2 12 2 32 0 45 -2 12 -4 2 -4 -23z"/>
<path d="M11618 6153 c12 -2 32 -2 45 0 12 2 2 4 -23 4 -25 0 -35 -2 -22 -4z"/>
<path d="M11833 6120 c0 -25 2 -35 4 -22 2 12 2 32 0 45 -2 12 -4 2 -4 -23z"/>
<path d="M4342 6060 c0 -14 2 -19 5 -12 2 6 2 18 0 25 -3 6 -5 1 -5 -13z"/>
<path d="M4391 6060 c0 -14 4 -34 9 -45 8 -18 9 -18 9 5 0 14 -4 34 -9 45 -8
18 -9 18 -9 -5z"/>
<path d="M11200 6025 c0 -16 -6 -25 -15 -25 -12 0 -15 -16 -15 -80 0 -64 3
-80 15 -80 12 0 15 13 15 55 l0 55 40 0 40 0 0 50 0 50 -40 0 c-36 0 -40 -2
-40 -25z"/>
<path d="M11440 6020 c0 -13 7 -20 20 -20 23 0 26 10 8 28 -18 18 -28 15 -28
-8z"/>
<path d="M10978 6003 c12 -2 32 -2 45 0 12 2 2 4 -23 4 -25 0 -35 -2 -22 -4z"/>
<path d="M11778 5923 c12 -2 32 -2 45 0 12 2 2 4 -23 4 -25 0 -35 -2 -22 -4z"/>
<path d="M12633 5640 c0 -25 2 -35 4 -22 2 12 2 32 0 45 -2 12 -4 2 -4 -23z"/>
<path d="M12720 5505 c0 -51 -3 -65 -15 -65 -11 0 -15 11 -15 40 l0 40 -105 0
-105 0 0 -55 0 -55 40 0 c36 0 40 -2 40 -25 0 -23 -4 -25 -45 -25 l-45 0 2
-42 c1 -43 1 -43 5 -6 l4 36 80 7 c58 5 79 11 79 21 0 10 12 14 39 14 l40 0
-3 -52 c-2 -29 -1 -36 1 -15 4 36 5 37 44 37 l39 0 0 41 0 41 80 -7 c70 -6 80
-5 80 9 0 12 -10 16 -40 16 -38 0 -40 2 -40 30 0 20 -5 30 -15 30 -8 0 -25 11
-39 25 -19 18 -36 25 -66 25 l-40 0 0 -65z"/>
<path d="M13840 5470 c0 -13 7 -20 20 -20 13 0 20 7 20 20 0 13 -7 20 -20 20
-13 0 -20 -7 -20 -20z"/>
<path d="M13083 5473 c-58 -6 -60 -33 -3 -33 22 0 40 5 40 10 0 6 18 10 40 10
22 0 40 5 40 10 0 10 -31 10 -117 3z"/>
<path d="M13363 5472 c-46 -1 -83 -7 -83 -12 0 -6 -18 -10 -40 -10 -29 0 -40
-4 -40 -15 0 -11 11 -15 40 -15 33 0 40 -4 40 -19 0 -16 -11 -20 -80 -26 -126
-11 -94 -26 40 -18 118 6 120 6 120 -15 0 -19 6 -22 40 -22 33 0 40 -3 40 -20
0 -17 -7 -20 -40 -20 -29 0 -40 -4 -40 -15 0 -11 11 -15 40 -15 29 0 40 4 40
15 0 11 11 15 40 15 22 0 40 5 40 10 0 6 9 10 19 10 11 0 23 -4 26 -10 10 -15
35 -12 35 5 0 8 5 15 10 15 6 0 13 -7 16 -15 4 -8 17 -15 30 -15 19 0 24 -5
24 -25 0 -25 -1 -25 -80 -25 -64 0 -80 -3 -80 -15 0 -12 14 -15 65 -15 l65 0
0 -40 c0 -37 -2 -40 -27 -40 -14 0 -24 -3 -20 -6 3 -3 40 -3 81 1 l76 7 0 39
c0 35 3 39 25 39 23 0 25 4 25 40 0 29 4 40 15 40 9 0 15 -9 15 -25 0 -18 5
-25 20 -25 19 0 20 7 20 100 0 93 -1 100 -20 100 -11 0 -20 5 -20 10 0 6 -18
10 -39 10 -22 0 -41 5 -43 11 -4 11 -228 17 -395 11z"/>
<path d="M9440 5345 c0 -16 52 -21 84 -9 32 12 15 24 -34 24 -38 0 -50 -4 -50
-15z"/>
<path d="M9378 5273 c12 -2 32 -2 45 0 12 2 2 4 -23 4 -25 0 -35 -2 -22 -4z"/>
<path d="M12633 5240 c0 -25 2 -35 4 -22 2 12 2 32 0 45 -2 12 -4 2 -4 -23z"/>
<path d="M13200 5260 c0 -23 10 -26 28 -8 18 18 15 28 -8 28 -13 0 -20 -7 -20
-20z"/>
<path d="M13252 5228 c-18 -18 -15 -28 8 -28 13 0 20 7 20 20 0 23 -10 26 -28
8z"/>
<path d="M13120 5190 c0 -5 5 -10 10 -10 6 0 10 5 10 10 0 6 -4 10 -10 10 -5
0 -10 -4 -10 -10z"/>
<path d="M13840 5180 c0 -13 7 -20 20 -20 13 0 20 7 20 20 0 13 -7 20 -20 20
-13 0 -20 -7 -20 -20z"/>
<path d="M13242 5157 c-29 -31 -28 -37 8 -37 27 0 30 3 30 30 0 36 -9 38 -38
7z"/>
<path d="M13180 5130 c0 -5 5 -10 10 -10 6 0 10 5 10 10 0 6 -4 10 -10 10 -5
0 -10 -4 -10 -10z"/>
<path d="M13840 5130 c0 -5 -7 -10 -15 -10 -12 0 -15 -16 -15 -80 0 -62 3 -80
14 -80 8 0 16 -6 19 -12 2 -8 8 -9 13 -4 5 5 4 11 -3 13 -7 3 -13 18 -13 34 0
22 5 29 20 29 18 0 20 7 20 60 0 53 -2 60 -20 60 -11 0 -20 -4 -20 -10z"/>
<path d="M13560 4920 c0 -33 3 -40 20 -40 17 0 20 7 20 40 0 33 -3 40 -20 40
-17 0 -20 -7 -20 -40z"/>
<path d="M13840 4840 c0 -33 3 -40 20 -40 17 0 20 7 20 40 0 33 -3 40 -20 40
-17 0 -20 -7 -20 -40z"/>
<path d="M9273 4760 c0 -25 2 -35 4 -22 2 12 2 32 0 45 -2 12 -4 2 -4 -23z"/>
<path d="M13520 4760 c0 -5 18 -10 40 -10 22 0 40 5 40 10 0 6 -18 10 -40 10
-22 0 -40 -4 -40 -10z"/>
<path d="M12640 4650 c0 -5 5 -10 10 -10 6 0 10 5 10 10 0 6 -4 10 -10 10 -5
0 -10 -4 -10 -10z"/>
<path d="M9138 4633 c12 -2 32 -2 45 0 12 2 2 4 -23 4 -25 0 -35 -2 -22 -4z"/>
<path d="M13272 4558 c1 -46 3 -64 5 -40 2 23 8 42 14 42 5 0 9 18 9 40 0 29
-4 40 -15 40 -12 0 -15 -15 -13 -82z"/>
<path d="M9273 4520 c0 -25 2 -35 4 -22 2 12 2 32 0 45 -2 12 -4 2 -4 -23z"/>
<path d="M12963 4440 c0 -25 2 -35 4 -22 2 12 2 32 0 45 -2 12 -4 2 -4 -23z"/>
<path d="M13180 4470 c0 -5 5 -10 10 -10 6 0 10 5 10 10 0 6 -4 10 -10 10 -5
0 -10 -4 -10 -10z"/>
<path d="M9043 4280 c0 -25 2 -35 4 -22 2 12 2 32 0 45 -2 12 -4 2 -4 -23z"/>
<path d="M13200 4280 l0 -40 40 0 40 0 0 40 0 40 -40 0 -40 0 0 -40z"/>
<path d="M9203 4200 c0 -25 2 -35 4 -22 2 12 2 32 0 45 -2 12 -4 2 -4 -23z"/>
<path d="M13040 4220 c0 -17 7 -20 40 -20 33 0 40 3 40 20 0 17 -7 20 -40 20
-33 0 -40 -3 -40 -20z"/>
<path d="M9572 4028 c-18 -18 -15 -28 8 -28 13 0 20 7 20 20 0 23 -10 26 -28
8z"/>
<path d="M12418 3753 c12 -2 32 -2 45 0 12 2 2 4 -23 4 -25 0 -35 -2 -22 -4z"/>
<path d="M11753 3640 c0 -25 2 -35 4 -22 2 12 2 32 0 45 -2 12 -4 2 -4 -23z"/>
<path d="M12338 3673 c12 -2 32 -2 45 0 12 2 2 4 -23 4 -25 0 -35 -2 -22 -4z"/>
<path d="M12483 3640 c0 -25 2 -35 4 -22 2 12 2 32 0 45 -2 12 -4 2 -4 -23z"/>
<path d="M11833 3560 c0 -25 2 -35 4 -22 2 12 2 32 0 45 -2 12 -4 2 -4 -23z"/>
<path d="M11500 3530 c0 -5 5 -10 10 -10 6 0 10 5 10 10 0 6 -4 10 -10 10 -5
0 -10 -4 -10 -10z"/>
<path d="M11440 3510 c0 -5 5 -10 10 -10 6 0 10 5 10 10 0 6 -4 10 -10 10 -5
0 -10 -4 -10 -10z"/>
<path d="M11920 3480 c0 -29 4 -40 15 -40 11 0 15 11 15 40 0 29 -4 40 -15 40
-11 0 -15 -11 -15 -40z"/>
<path d="M12003 3480 c0 -25 2 -35 4 -22 2 12 2 32 0 45 -2 12 -4 2 -4 -23z"/>
<path d="M12320 3510 c0 -5 18 -10 40 -10 22 0 40 5 40 10 0 6 -18 10 -40 10
-22 0 -40 -4 -40 -10z"/>
<path d="M12320 3450 c0 -5 -7 -10 -15 -10 -11 0 -15 -11 -15 -40 0 -29 4 -40
15 -40 11 0 15 11 15 40 l0 40 40 0 40 0 0 -40 c0 -29 4 -40 15 -40 11 0 15
11 15 40 0 29 -4 40 -15 40 -8 0 -15 5 -15 10 0 6 -18 10 -40 10 -22 0 -40 -4
-40 -10z"/>
<path d="M11698 3433 c12 -2 32 -2 45 0 12 2 2 4 -23 4 -25 0 -35 -2 -22 -4z"/>
<path d="M11920 3295 l0 -65 40 0 c29 0 40 -4 40 -15 0 -11 11 -15 40 -15 29
0 40 4 40 15 0 11 -11 15 -40 15 -36 0 -40 3 -40 25 0 23 4 25 40 25 l40 0 0
40 0 40 -80 0 -80 0 0 -65z"/>
<path d="M11840 3160 l0 -40 40 0 40 0 0 40 0 40 -40 0 -40 0 0 -40z"/>
<path d="M12160 3166 c0 -9 5 -16 10 -16 6 0 10 4 10 9 0 6 -4 13 -10 16 -5 3
-10 -1 -10 -9z"/>
<path d="M11033 3080 c0 -25 2 -35 4 -22 2 12 2 32 0 45 -2 12 -4 2 -4 -23z"/>
<path d="M11443 3080 c0 -25 2 -35 4 -22 2 12 2 32 0 45 -2 12 -4 2 -4 -23z"/>
<path d="M10738 3043 c12 -2 32 -2 45 0 12 2 2 4 -23 4 -25 0 -35 -2 -22 -4z"/>
<path d="M11280 3030 c0 -5 5 -10 10 -10 6 0 10 5 10 10 0 6 -4 10 -10 10 -5
0 -10 -4 -10 -10z"/>
<path d="M12442 2997 c-29 -31 -28 -37 8 -37 27 0 30 3 30 30 0 36 -9 38 -38
7z"/>
<path d="M10978 2963 c12 -2 32 -2 45 0 12 2 2 4 -23 4 -25 0 -35 -2 -22 -4z"/>
<path d="M10800 2920 c0 -29 4 -40 15 -40 11 0 15 11 15 40 0 29 -4 40 -15 40
-11 0 -15 -11 -15 -40z"/>
<path d="M11010 2840 c0 -29 4 -40 15 -40 11 0 15 11 15 40 0 29 -4 40 -15 40
-11 0 -15 -11 -15 -40z"/>
<path d="M3921 704 c0 -11 3 -14 6 -6 3 7 2 16 -1 19 -3 4 -6 -2 -5 -13z"/>
<path d="M3896 639 c-11 -21 -16 -42 -13 -45 4 -4 9 2 13 12 3 10 11 29 17 41
6 13 8 25 6 27 -2 3 -13 -13 -23 -35z"/>
<path d="M4900 481 c0 -7 -4 -10 -9 -7 -4 3 -19 -6 -31 -19 -13 -14 -19 -25
-14 -25 5 0 4 -4 -1 -8 -19 -13 -38 -61 -31 -77 4 -12 13 -15 30 -11 15 4 26
1 28 -6 3 -7 22 4 47 28 32 30 42 45 37 60 -8 25 -56 81 -56 65z"/>
<path d="M5080 400 c-17 -11 -7 -24 28 -35 19 -5 22 -3 22 19 0 28 -21 34 -50
16z"/>
<path d="M4966 344 l-19 -26 44 7 c49 8 65 18 55 34 -13 21 -60 11 -80 -15z"/>
<path d="M4780 285 c0 -8 5 -15 10 -15 6 0 10 7 10 15 0 8 -4 15 -10 15 -5 0
-10 -7 -10 -15z"/>
<path d="M4896 265 c-31 -47 -19 -59 24 -24 46 37 50 49 16 49 -14 0 -30 -10
-40 -25z"/>
<path d="M4725 220 c-3 -5 -1 -10 4 -10 6 0 11 5 11 10 0 6 -2 10 -4 10 -3 0
-8 -4 -11 -10z"/>
<path d="M4875 170 c-3 -5 -1 -10 4 -10 6 0 11 5 11 10 0 6 -2 10 -4 10 -3 0
-8 -4 -11 -10z"/>
<path d="M4720 130 c0 -5 5 -12 10 -15 6 -3 10 -18 10 -32 0 -19 -4 -24 -16
-19 -9 3 -17 6 -20 6 -2 0 -1 7 2 15 4 10 2 13 -8 10 -9 -4 -13 -17 -10 -39 5
-39 34 -59 77 -54 22 2 31 10 37 33 4 17 6 37 3 45 -6 17 -85 63 -85 50z"/>
<path d="M5210 100 c-13 -8 -12 -10 3 -10 9 0 17 5 17 10 0 12 -1 12 -20 0z"/>
</g>
</svg>
